<?xml version="1.0" encoding="utf-8"?>
<!-- Generator: Adobe Illustrator 27.5.0, SVG Export Plug-In . SVG Version: 6.00 Build 0)  -->
<svg version="1.1" xmlns="http://www.w3.org/2000/svg" xmlns:xlink="http://www.w3.org/1999/xlink" x="0px" y="0px"
	 viewBox="0 0 750 500" style="enable-background:new 0 0 750 500;" xml:space="preserve">
<g id="BACKGROUND">
	<rect style="fill:#422108;" width="750" height="500"/>
	<rect y="307.746" style="opacity:0.28;fill:#994534;" width="750" height="192.254"/>
</g>
<g id="OBJECTS">
	<path style="opacity:0.41;fill:#231004;" d="M151.036,345.559c-13.342,3.591-70.453-4.032-67.342,12.375
		c2.125,11.212,58.142,16.457,65.169,16.02c-9.817,8.131-5.406,22.868,6.99,25.839c-5.163,7.085-5.279,17.453-0.277,24.652
		c5.887,8.472,16.824,11.475,26.872,13.812c23.094,5.373,46.625,10.403,70.298,9.067c23.673-1.336,47.862-9.788,63.573-27.547
		c4.285-4.843,10.806-10.86,16.065-7.097c2.334,1.67,3.153,4.687,4.344,7.298c5.665,12.416,16.87,20.851,30.171,23.905
		c18.287,4.198,42.047,7.071,60.805,7.5c18.758,0.429,36.644-5.854,52.281-16.225c4.58-3.038,9.78-6.815,15.029-5.184
		c6.748,2.096,7.99,11.215,13.109,16.086c4.04,3.845,10.025,4.608,15.573,5.179c7.375,0.759,17.634-0.789,17.929-8.196
		c0.107-2.687-1.355-5.163-1.941-7.787c-2.221-9.958,8.003-17.955,17.088-22.598c16.961-8.669,34.789-15.641,53.131-20.778
		c3.957-1.108,8.45-2.068,11.968,0.055c3.833,2.313,4.916,7.279,7.397,11.004c3.532,5.303,10.493,8.068,16.701,6.632
		c6.208-1.435,11.249-6.974,12.095-13.29c1.404-10.484-7.493-19.22-15.635-25.973c-10.895-9.036-22.158-18.138-35.488-22.901
		c-10.947-3.911-22.876-4.729-33.571-9.283c-11.323-4.82-20.608-13.55-31.825-18.612c-11.235-5.07-23.787-6.201-36.067-7.262
		c-46.438-4.015-92.982-8.033-139.583-7.051c-12.79,0.27-25.726,0.941-37.975,4.632c-11.821,3.562-22.613,9.816-33.468,15.699
		c-30.882,16.739-65.588,31.21-100.226,25.372c-14.306-2.411-28.606-8.258-42.855-5.529c4.418-2.979,8.837-5.958,13.255-8.937"/>
	<g>
		<g>
			<g>
				<ellipse style="fill:#E576B8;" cx="359.916" cy="335.419" rx="37.078" ry="14.698"/>
				<path style="fill:#FF99CC;" d="M396.988,331.636c0,8.11-16.6,14.692-37.077,14.692c-4.775,0-9.336-0.354-13.517-1.011
					c-13.795-2.135-23.56-7.466-23.56-13.681c0-8.123,16.6-14.705,37.077-14.705c2.451,0,4.851,0.089,7.176,0.278
					C384.128,318.535,396.988,324.486,396.988,331.636z"/>
				<path style="opacity:0.4;fill:#BC0C6C;" d="M367.579,333.606c-4.257,0.96-8.717-0.038-13.062,0.417
					c-4.333,0.442-9.121,3.247-9.222,7.605c-0.025,1.415,0.379,2.615,1.099,3.689c-13.795-2.135-23.56-7.466-23.56-13.681
					c0-8.123,16.6-14.705,37.077-14.705c2.451,0,4.851,0.089,7.176,0.278c1.579,1.011,3.07,2.135,4.472,3.348
					c1.213,1.061,2.4,2.249,2.944,3.777C375.955,328.44,371.824,332.634,367.579,333.606z"/>
			</g>
			<g>
				<path style="fill:#E576B8;" d="M369.676,280.195c-2.83,11.357,4.194,10.624,4.194,18.368c0,9.02-9.02,7.681-8.691,14.364
					c0.215,4.396,4.346,9.083,7.15,11.774c1.326,1.289,0.985,3.487-0.657,4.346c-1.2,0.632-2.729,1.289-4.548,1.807
					c-1.806,0.505-3.916,0.859-6.278,0.884h-0.164c-0.594-0.013-1.175-0.038-1.731-0.076c-3.891-0.316-6.986-1.516-9.096-2.615
					c-1.642-0.859-1.983-3.057-0.644-4.346c2.792-2.691,6.923-7.378,7.138-11.774c0.341-6.683-8.679-5.344-8.679-14.364
					c0-7.744,7.011-7.011,4.181-18.368c-2.83-11.357-10.523-18.861-10.523-18.861l19.442,0.733l19.442-0.733
					c0,0-4.384,4.283-7.757,11.256C371.356,274.851,370.371,277.403,369.676,280.195z"/>
				<path style="opacity:0.33;fill:#BC0C6C;" d="M380.212,261.334c0,0-4.384,4.283-7.757,11.256
					c-2.476,0.821-5.154,1.175-8.009,0.973c-2.135-0.152-4.712-0.442-5.988,1.276c-1.718,2.324,0.796,5.331,1.579,8.11
					c1.844,6.658-6.784,13.555-3.689,19.733c0.91,1.806,2.678,3.044,3.676,4.813c3.373,5.975-3.752,13.1-2.665,19.872
					c0.253,1.516,0.884,2.918,1.592,4.295c-3.891-0.316-6.986-1.516-9.096-2.615c-1.642-0.859-1.983-3.057-0.644-4.346
					c2.792-2.691,6.923-7.378,7.138-11.774c0.341-6.683-8.679-5.344-8.679-14.364c0-7.744,7.011-7.011,4.181-18.368
					c-2.83-11.357-10.523-18.861-10.523-18.861l19.442,0.733L380.212,261.334z"/>
			</g>
			<g>
				<path style="fill:#FF99CC;" d="M420.599,151.895c-0.051,0.846-0.101,1.731-0.164,2.666c0,0.101-0.013,0.202-0.013,0.303
					c-0.96,15.26-4.143,41.398-14.326,70.226c-4.977,14.111-10.536,23.687-16.082,30.193c0,0.013-0.013,0.013-0.013,0.013
					c-0.493,0.581-0.998,1.15-1.503,1.68c-1.048,1.15-2.11,2.173-3.146,3.108c-10.207,9.121-19.694,8.932-24.508,8.906
					c-4.876,0.025-14.578,0.215-24.95-9.31c-2.072-1.908-4.169-4.194-6.253-6.948c-4.864-6.392-9.677-15.273-14.035-27.641
					c-10.27-29.055-13.403-55.382-14.351-70.592c-0.063-0.935-0.101-1.832-0.152-2.678c-0.328-6.923-0.202-10.927-0.202-10.927
					c24.571,12.885,95.327,12.885,119.898,0C420.801,140.892,420.928,144.922,420.599,151.895z"/>
				<path style="fill:#FFBDE1;" d="M360.136,162.2c0.183,0,0.368,0.002,0.555,0.006c5.564,0.116,10.14,4.435,10.573,9.983
					c1.19,15.234,2.603,50.704-5.123,90.793c-0.493,2.561-2.713,4.427-5.321,4.439l-0.124,0c-2.657,0.003-4.944-1.877-5.41-4.492
					c-2.059-11.56-7.608-47.534-5.726-90.439C349.808,166.814,354.454,162.2,360.136,162.2z"/>
				<path style="fill:#E576B8;" d="M360.688,264.749c-1.37,0-2.537-0.962-2.773-2.288c-1.811-10.18-7.577-46.745-5.686-89.854
					c0.188-4.265,3.734-7.735,7.907-7.735l0.498,0.005c4.213,0.088,7.637,3.321,7.965,7.52c1.065,13.63,2.701,49.693-5.082,90.08
					c-0.253,1.31-1.392,2.266-2.71,2.272L360.688,264.749z"/>
				<path style="fill:#FFBDE1;" d="M371.34,260.772c3.474-13.386,12.517-53.072,8.708-90.797c-0.535-5.301,3.369-10.059,8.674-10.56
					c0.114-0.011,0.229-0.021,0.344-0.03c5.436-0.44,10.074,3.898,10.276,9.348c0.607,16.434-0.631,55.136-21.614,91.391
					c-0.714,1.233-1.717,2.277-2.915,3.048c-0.024,0.016-0.049,0.031-0.073,0.047C373.012,264.321,370.825,262.756,371.34,260.772z"
					/>
				<path style="fill:#E576B8;" d="M374.231,260.255c4.032-15.832,12.179-53.869,8.476-90.549c-0.188-1.853,0.365-3.671,1.555-5.119
					c1.189-1.446,2.862-2.338,4.71-2.512l0.304-0.027c0.187-0.015,0.368-0.022,0.548-0.022c3.637,0,6.707,3.053,6.845,6.805
					c0.556,15.044-0.403,53.924-21.257,89.953C375.098,259.329,374.698,259.826,374.231,260.255z"/>
				<path style="fill:#FFBDE1;" d="M348.632,260.772c-3.474-13.386-12.517-53.072-8.708-90.797
					c0.535-5.301-3.369-10.059-8.674-10.56c-0.114-0.011-0.229-0.021-0.344-0.03c-5.436-0.44-10.074,3.898-10.275,9.348
					c-0.607,16.434,0.631,55.136,21.614,91.391c0.714,1.233,1.717,2.277,2.915,3.048c0.024,0.016,0.049,0.031,0.073,0.047
					C346.96,264.321,349.147,262.756,348.632,260.772z"/>
				<path style="fill:#E576B8;" d="M345.738,260.249c-0.475-0.436-0.869-0.927-1.181-1.465
					c-20.852-36.029-21.812-74.909-21.256-89.953c0.138-3.752,3.209-6.805,6.845-6.805c0.18,0,0.361,0.007,0.544,0.022l0.292,0.026
					c1.865,0.176,3.537,1.068,4.726,2.514c1.19,1.448,1.743,3.266,1.555,5.119C333.563,206.379,341.706,244.41,345.738,260.249z"/>
				<path style="fill:#FFBDE1;" d="M420.597,151.892c-0.053,0.855-0.094,1.737-0.16,2.672c-0.935,15.219-4.089,41.514-14.337,70.522
					c-4.984,14.11-10.542,23.69-16.087,30.197c0,0.013-0.013,0.013-0.013,0.013c-1.55,1.831-3.113,3.421-4.65,4.784
					c-2.205-2.004,13.468-17.089,19.441-57.722c2.833-19.227,2.886-30.905,2.405-37.426c-0.561-7.563,5.786-13.909,13.321-13.054
					C420.543,151.879,420.57,151.892,420.597,151.892z"/>
				<path style="fill:#E576B8;" d="M420.436,154.565c-0.935,15.219-4.089,41.514-14.337,70.522
					c-4.984,14.11-10.542,23.69-16.087,30.197c4.329-7.856,13.241-24.117,17.423-52.537c2.873-19.588,2.913-31.48,2.419-38.014
					c-0.187-2.712,0.708-5.291,2.552-7.282c1.79-1.911,4.182-2.98,6.748-2.98c0.347,0,0.695,0.027,1.056,0.067L420.436,154.565z"/>
				<path style="fill:#FFBDE1;" d="M335.898,259.679c-2.071-1.911-4.169-4.195-6.253-6.948c-4.864-6.387-9.674-15.272-14.043-27.645
					c-10.262-29.048-13.402-55.383-14.35-70.589c-0.053-0.935-0.094-1.831-0.147-2.672c7.282-0.481,13.281,5.745,12.747,13.108
					c-0.494,6.52-0.428,18.198,2.405,37.426C321.935,240.973,336.379,256.526,335.898,259.679z"/>
				<path style="fill:#E576B8;" d="M329.645,252.732c-4.864-6.387-9.674-15.272-14.043-27.645
					c-10.262-29.048-13.402-55.383-14.35-70.589c0.227-0.013,0.428-0.027,0.641-0.027c2.565,0,4.957,1.069,6.747,2.98
					c1.831,1.991,2.739,4.57,2.539,7.282c-0.481,6.534-0.454,18.426,2.432,38.014C317.379,228.387,325.008,244.127,329.645,252.732z
					"/>
				<path style="opacity:0.4;fill:#BC0C6C;" d="M420.599,151.895c-0.051,0.846-0.101,1.731-0.164,2.666
					c0,0.101-0.013,0.202-0.013,0.303c-19.038,8.477-45.314,7.049-63.114,6.847c-2.35-0.025-4.889,0.025-6.784,1.415
					c-2.59,1.908-3.032,5.546-3.171,8.755c-0.783,17.143,0.417,34.374,3.562,51.239c1.402,7.542,3.247,15.172,7.289,21.691
					c4.03,6.531,10.599,11.887,18.229,12.759c3.967,0.455,8.06-0.303,12.064-0.594c-1.048,1.15-2.11,2.173-3.146,3.108
					c-10.207,9.121-19.694,8.932-24.508,8.906c-4.876,0.025-14.578,0.215-24.95-9.31c-2.072-1.908-4.169-4.194-6.253-6.948
					c-4.864-6.392-9.677-15.273-14.035-27.641c-10.27-29.055-13.403-55.382-14.351-70.592c-0.063-0.935-0.101-1.832-0.152-2.678
					c-0.328-6.923-0.202-10.927-0.202-10.927c24.571,12.885,95.327,12.885,119.898,0
					C420.801,140.892,420.928,144.922,420.599,151.895z"/>
			</g>
			<g>
				<path style="fill:#E576B8;" d="M428.444,136.294c-0.088,0.947-0.202,1.857-0.316,2.741c-0.733,5.596-4.94,10.081-10.473,11.231
					c-30.685,6.367-60.246,5.95-82.316,3.916c-12.064-1.124-21.893-2.741-28.449-3.992c-5.659-1.086-9.993-5.723-10.599-11.458
					c-0.19-1.693-0.303-3.31-0.366-4.851c-0.442-11.016,5.659-22.057,16.157-25.417c40.602-12.999,83.693-6.645,99.13,0.316
					c4.181,1.882,7.845,4.561,10.713,7.82C426.638,121.93,429.215,128.815,428.444,136.294z"/>
				<path style="opacity:0.33;fill:#BC0C6C;" d="M422.474,120.437c-1.971,10.17-11.353,15.447-25.975,16.965
					c-18.481,1.928-37.265,1.965-55.522-1.459c-1.977-0.373-4.105-0.768-5.963,0.03c-2.039,0.863-3.283,3.003-3.756,5.163
					c-0.937,4.183,0.354,7.932,2.513,11.568c-11.974-1.853-21.686-4.063-28.155-5.708c-5.583-1.427-9.628-6.318-9.885-12.079
					c-0.087-1.701-0.102-3.322-0.072-4.864c0.226-11.022,6.985-21.674,17.668-24.392c41.315-10.515,83.941-1.562,98.929,6.321
					C416.314,114.115,419.809,117.01,422.474,120.437z"/>
				<path style="fill:#A54181;" d="M418.151,118.996c0,2.619-2.686,5.077-7.376,7.188c-0.013,0.013-0.013,0.013-0.013,0.013
					s0,0-0.013,0.013c-9.647,4.342-27.779,7.282-48.556,7.282c-27.231,0-49.919-5.051-54.916-11.718
					c-0.681-0.895-1.029-1.83-1.029-2.779c0-2.418,2.272-4.703,6.307-6.707c9.326-4.636,28.059-7.803,49.638-7.803
					c25.427,0,46.899,4.396,53.7,10.422C417.363,116.204,418.151,117.58,418.151,118.996z"/>
			</g>
		</g>
		<g>
			<path style="fill:#F45250;" d="M408.573,95.465c-0.076,2.4-1.137,4.396-2.767,5.887c-3.133,2.88-8.388,3.828-12.709,1.958
				c-6.569-2.83-8.35-12.633-2.337-17.307c1.882-1.465,3.423-1.882,4.725-1.756c2.868,0.265,4.586,3.171,6.19,3.537
				C403.456,88.201,408.8,88.453,408.573,95.465z"/>
			<path style="opacity:0.45;fill:#842F2F;" d="M405.806,101.352c-3.133,2.88-8.388,3.828-12.709,1.958
				c-6.569-2.83-8.35-12.633-2.337-17.307c1.882-1.465,3.423-1.882,4.725-1.756c0.569,2.943,1.642,5.685,4.156,7.668
				C402.635,94.277,404.808,97.663,405.806,101.352z"/>
			<path style="fill:#4F713E;" d="M399.891,88.786c0,0,4.336-15.108,19.327-18.155c0.663-0.135,1.306,0.334,1.411,1.002l0,0
				c0.104,0.657-0.339,1.268-0.995,1.376c-3.459,0.565-13.576,3.266-18.408,15.778H399.891z"/>
		</g>
		<g>
			<polygon style="fill:#F8A614;" points="351.851,108.931 347.404,111.849 346.331,112.544 342.654,114.945 340.292,110.814 
				335.315,102.122 330.691,94.062 325.701,85.371 321.09,77.324 316.113,68.62 312.159,61.735 316.315,59.549 320.042,57.579 
				321.469,56.821 325.727,64.135 330.401,72.157 335.391,80.697 340.065,88.731 345.055,97.284 349.729,105.306 			"/>
			<g>
				<g>
					<polygon style="fill:#833C20;" points="325.727,64.135 323.111,71.589 321.09,77.324 316.113,68.62 318.172,62.847 
						320.042,57.579 321.469,56.821 					"/>
					<polygon style="fill:#833C20;" points="335.391,80.697 332.649,88.479 330.691,94.062 325.701,85.371 327.71,79.737 
						330.401,72.157 					"/>
					<polygon style="fill:#833C20;" points="345.055,97.284 342.225,105.331 340.292,110.814 335.315,102.122 337.273,96.614 
						340.065,88.731 					"/>
					<polygon style="fill:#833C20;" points="351.852,108.935 347.402,111.848 349.727,105.301 					"/>
				</g>
			</g>
			<path style="opacity:0.38;fill:#5B2411;" d="M346.331,112.544l-3.676,2.4l-2.362-4.131l-4.977-8.691l-4.624-8.06l-4.99-8.691
				l-4.611-8.047l-4.977-8.704l-3.954-6.885l4.156-2.185c0.594,1.049,1.213,2.148,1.857,3.297c1.516,2.691,3.171,5.634,4.939,8.742
				c1.465,2.615,3.007,5.344,4.598,8.148c1.604,2.842,3.259,5.773,4.939,8.742c1.529,2.691,3.07,5.42,4.624,8.136
				c1.655,2.918,3.31,5.836,4.952,8.717C343.615,107.782,344.992,110.195,346.331,112.544z"/>
		</g>
		<g>
			<ellipse style="fill:#833C20;" cx="314.149" cy="101.704" rx="21.378" ry="24.382"/>
			<ellipse style="fill:#FFEEC5;" cx="317.937" cy="101.704" rx="20.201" ry="23.04"/>
			<ellipse style="fill:#833C20;" cx="323.618" cy="101.704" rx="21.378" ry="24.382"/>
			<ellipse style="fill:#602A17;" cx="327.227" cy="101.704" rx="15.334" ry="17.488"/>
		</g>
		<g>
			<g>
				<path style="fill:#FFECB3;" d="M415.205,119.796c-1.377,3.727-4.194,6.203-4.434,6.392c-0.013,0.013-0.013,0.013-0.013,0.013
					s0,0-0.013,0.012c-9.639,4.346-27.78,7.277-48.548,7.277c-27.236,0-49.925-5.04-54.915-11.711
					c0.695-2.426,2.729-5.268,8.173-6.936c0,0-1.908-0.632-2.906-2.552c-0.493-0.935-0.758-2.198-0.48-3.828
					c0.859-4.977,6.43-4.649,6.43-4.649s-1.566-7.352,6.127-10.346c7.681-3.007,11.281,1.668,11.281,1.668
					s-0.783-10.687,9.828-14.705c1.301-0.493,2.552-0.808,3.752-0.998c8.552-1.314,14.212,4.346,14.212,4.346
					s6.683-8.742,15.033-4.548c8.35,4.207,6.405,13.896,6.405,13.896s5.95-3.007,11.635,0.341
					c5.672,3.335,4.674,11.016,4.674,11.016s8.477-2.64,13.1,6.026c0.808,1.529,1.225,3.007,1.352,4.396
					C416.051,116.688,415.736,118.343,415.205,119.796z"/>
				<path style="opacity:0.14;fill:#AD2004;" d="M415.205,119.796c-1.377,3.727-4.194,6.203-4.434,6.392
					c-0.013,0.013-0.013,0.013-0.013,0.013s0,0-0.013,0.012c-9.639,4.346-27.78,7.277-48.548,7.277
					c-27.236,0-49.925-5.04-54.915-11.711c0.695-2.426,2.729-5.268,8.173-6.936c0,0-1.908-0.632-2.906-2.552
					c-0.493-0.935-0.758-2.198-0.48-3.828c0.859-4.977,6.43-4.649,6.43-4.649s-1.566-7.352,6.127-10.346
					c7.681-3.007,11.281,1.668,11.281,1.668s-0.783-10.687,9.828-14.705c1.301-0.493,2.552-0.808,3.752-0.998
					c-2.767,2.16-5.167,4.876-6.607,8.843c-2.489,6.847,4.068,16.334,10.751,13.467c-5.382,1.832-7.668,9.525-4.156,13.997
					c3.525,4.485,11.534,4.093,14.604-0.707c2.135,9.058,15.513,12.848,22.082,6.253c7.782,5.988,19.619,5.925,27.337-0.126
					C414.055,120.718,414.624,120.238,415.205,119.796z"/>
			</g>
			<g>
				<g>
					<g>
						<polygon style="fill:#F8A614;" points="329.645,99.475 332.304,97.304 334.976,102.482 333.5,103.312 						"/>
						<polygon style="fill:#F8A614;" points="362.534,121.522 364.872,118.682 371.263,124.027 368.547,126.699 						"/>
						<polygon style="fill:#F8A614;" points="373.056,91.291 375.395,88.786 380.739,93.63 379.403,95.467 						"/>
					</g>
				</g>
				<g>
					<g>
						<polygon style="fill:#95D3C8;" points="335.91,122.691 337.815,121.522 340.822,127.2 338.818,128.228 						"/>
						<polygon style="fill:#95D3C8;" points="357.19,94.632 359.862,92.126 364.872,98.473 362.244,100.937 						"/>
						<polygon style="fill:#95D3C8;" points="385.917,125.363 384.748,122.691 392.598,121.021 393.099,122.691 						"/>
					</g>
				</g>
				<g>
					<g>
						<polygon style="fill:#E576B8;" points="323.198,114.173 328.629,111.835 327.627,109.663 322.283,111.918 						"/>
						<polygon style="fill:#E576B8;" points="340.822,109.162 342.492,111.334 348.338,106.49 346.835,104.486 						"/>
						<polygon style="fill:#E576B8;" points="375.395,112.67 373.724,109.663 381.073,106.824 381.908,108.995 						"/>
						<polygon style="fill:#E576B8;" points="409.801,112.67 403.454,110.498 404.289,107.91 411.137,109.747 						"/>
					</g>
				</g>
			</g>
			<g>
				<path style="fill:#95D3C8;" d="M356.916,86.32c0.58,2.041-2.042,4.575-5.857,5.66c-3.815,1.085-7.378,0.31-7.959-1.73
					c-0.58-2.041,2.042-4.575,5.857-5.66C352.772,83.505,356.335,84.28,356.916,86.32z"/>
				<path style="fill:#E576B8;" d="M358.761,119.557c0.58,2.041-2.042,4.575-5.857,5.66c-3.815,1.085-7.378,0.31-7.959-1.73
					c-0.58-2.041,2.042-4.574,5.857-5.66C354.617,116.742,358.18,117.516,358.761,119.557z"/>
				<path style="fill:#F8A614;" d="M328.65,120.649c0,2.122-3.215,3.841-7.182,3.841c-3.966,0-7.182-1.72-7.182-3.841
					c0-2.121,3.216-3.841,7.182-3.841C325.434,116.808,328.65,118.528,328.65,120.649z"/>
				<path style="fill:#E576B8;" d="M396.469,108.938c-0.929,1.907-4.573,2.046-8.139,0.309c-3.566-1.737-5.704-4.691-4.775-6.598
					c0.929-1.907,4.573-2.046,8.139-0.309C395.26,104.076,397.398,107.03,396.469,108.938z"/>
				<path style="fill:#95D3C8;" d="M411.056,119.901c0.58,2.041-2.042,4.575-5.857,5.66c-3.815,1.085-7.378,0.31-7.959-1.73
					c-0.58-2.041,2.042-4.575,5.857-5.66C406.913,117.086,410.476,117.861,411.056,119.901z"/>
			</g>
		</g>
	</g>
	<g>
		<g>
			<path style="fill:#FBDDC1;" d="M601.797,302.39c-6.941,1.597-13.456,2.307-18.802,2.586c-8.224,0.431-13.693-0.161-13.693-0.161
				l1.561-14.164c0,0,24.182,5.037,29.659-4.166c5.485-9.195,11.453-34.701,2.845-35.504c-8.617-0.811-26.234,3.237-26.234,3.237
				l3.131-15.381c0,0,4.03-1.065,9.532-1.91c9.655-1.462,23.855-2.214,28.841,4.741C626.469,252.595,619.414,298.341,601.797,302.39
				z"/>
			<path style="opacity:0.33;fill:#842810;" d="M614.222,263.599c-1.668,6.643-3.376,13.378-6.663,19.336
				c-3.295,5.958-8.428,11.156-14.854,12.905c-3.245,0.879-7.21,1.192-8.862,4.217c-0.809,1.462-0.826,3.211-0.85,4.919
				c-8.224,0.431-13.693-0.161-13.693-0.161l1.561-14.164c0,0,24.182,5.037,29.659-4.166c5.485-9.195,11.453-34.701,2.845-35.504
				c-8.617-0.811-26.234,3.237-26.234,3.237l3.131-15.381c0,0,4.03-1.065,9.532-1.91c-0.401,4.023-0.719,7.564-0.409,7.648
				c7.635,2.054,17.069-3.634,22.988,1.749C616.822,250.364,615.71,257.674,614.222,263.599z"/>
		</g>
		<g>
			<path style="fill:#FFECB3;" d="M596.849,189.237l-9.593,47.858l-10.013,49.928l-8.973,44.822l-0.115,0.578
				c0,0-5.747,9.067-33.075,9.54v0.01c-0.378,0-0.704-0.01-1.072-0.01c-0.357,0-0.704,0.01-1.072,0.01v-0.01
				c-27.339-0.473-33.086-9.54-33.086-9.54l-9.361-46.745l-9.971-49.729l-9.361-46.713c7.428,9.057,20.415,13.522,32.75,15.676
				c12.503,2.185,24.334,1.996,29.03,1.807v-0.115c0,0,0.378,0.031,1.072,0.074c0.683-0.042,1.072-0.074,1.072-0.074v0.115
				C544.41,207.098,581.93,207.466,596.849,189.237z"/>
			<path style="fill:#FBDDC1;" d="M500.169,326.413l2.622,13.09c0,0,5.256,8.302,30.239,8.718v0.02c0.334,0,0.65-0.007,0.978-0.01
				c0.328,0.003,0.644,0.01,0.978,0.01v-0.02c24.983-0.416,30.239-8.718,30.239-8.718l2.724-13.598L500.169,326.413z"/>
			<path style="fill:#833C20;" d="M587.258,237.097l-19.098,95.323c0,0-5.752,9.073-33.078,9.541v0.015
				c-0.377,0-0.71-0.015-1.072-0.015c-0.362,0-0.71,0.015-1.072,0.015v-0.015c-27.341-0.468-33.093-9.541-33.093-9.541
				l-19.324-96.47C502.096,243.604,544.217,253.719,587.258,237.097z"/>
			<path style="fill:#DFA872;" d="M577.249,287.023l-9.088,45.397c0,0-5.752,9.073-33.078,9.541v0.015
				c-0.377,0-0.71-0.015-1.072-0.015c-0.362,0-0.71,0.015-1.072,0.015v-0.015c-27.341-0.468-33.093-9.541-33.093-9.541l-9.36-46.741
				C511.562,291.793,543.658,296.957,577.249,287.023z"/>
			<path style="opacity:0.33;fill:#842810;" d="M568.271,331.845l-0.115,0.578c0,0-5.747,9.067-33.075,9.54v0.01
				c-0.378,0-0.704-0.01-1.072-0.01c-0.357,0-0.704,0.01-1.072,0.01v-0.01c-27.339-0.473-33.086-9.54-33.086-9.54l-9.361-46.745
				l-9.971-49.729l-9.361-46.713c7.428,9.057,20.415,13.522,32.75,15.676c5.779,38.602,16.38,109.323,17.651,117.959
				C523.082,333.148,552.469,340.965,568.271,331.845z"/>
			<path style="opacity:0.32;fill:#FFFFFF;" d="M573.659,222.754h1.036c1.816,0,3.209,1.612,2.946,3.409l-14.002,95.558
				c-0.214,1.462-1.468,2.545-2.946,2.545l0,0c-1.803,0-3.192-1.591-2.95-3.377l12.966-95.558
				C570.909,223.855,572.169,222.754,573.659,222.754z"/>
		</g>
		<g>
			<ellipse style="fill:#FBDDC1;" cx="535.078" cy="189.242" rx="63.911" ry="24.908"/>
			<path style="fill:#825545;" d="M595.969,188.454c0,0.468-0.045,0.921-0.121,1.389c-2.008,11.323-28.458,20.29-60.766,20.29
				c-28.518,0-52.447-6.975-59.075-16.395c-1.193-1.691-1.827-3.457-1.827-5.284c0-6.175,7.232-11.745,18.841-15.686
				c2.823-0.966,5.903-1.827,9.209-2.566c3.669-0.861,7.609-1.555,11.761-2.114c5.812-0.755,12.047-1.208,18.539-1.298
				c0.845-0.03,1.691-0.03,2.551-0.03c6.175,0,12.123,0.332,17.739,0.936c4.529,0.498,8.817,1.162,12.833,2.008
				C583.786,173.448,595.969,180.438,595.969,188.454z"/>
		</g>
		<g>
			<path style="fill:#FFEEC5;" d="M595.851,189.846c-0.767,4.308-5.085,8.279-11.915,11.547
				c-11.106,5.306-28.862,8.742-48.856,8.742c-28.515,0-52.439-6.976-59.069-16.401c0.031-0.263,0.073-0.557,0.137-0.841
				c1.229-5.537,8.573-9.96,14.384-8.489c-1.891-3.846-0.651-8.658,2.49-11.631c0.998-0.946,2.175-1.692,3.499-2.175
				c1.828-0.651,3.814-0.757,5.716-0.399c3.908,0.693,7.47,3.299,8.679,6.872c0.315-3.152,1.25-6.336,3.078-8.983
				c0.483-0.693,1.03-1.355,1.629-1.965c2.931-2.921,7.533-4.57,11.652-3.436c0.042,0.01,0.073,0.021,0.116,0.031
				c2.196,0.641,4.077,2.185,5.138,4.077c0.925,1.576,1.261,3.425,0.714,5.169c1.944-2.038,5.285-2.774,8.006-1.776
				c2.711,0.998,4.612,3.656,4.581,6.367c0.778-3.709,3.478-7.092,6.997-8.857c1.797-0.904,3.814-1.376,5.884-1.271
				c2.669,0.137,5.159,1.418,6.945,3.278c2.311,2.385,3.446,5.716,2.248,8.752c2.805-2.795,7.596-3.646,11.305-2.017
				c3.719,1.629,6.052,5.632,5.547,9.414C588.591,183.595,593.74,186.053,595.851,189.846z"/>
			<path style="opacity:0.19;fill:#842810;" d="M583.937,201.393c-11.106,5.306-28.862,8.742-48.856,8.742
				c-28.515,0-52.439-6.976-59.069-16.401c0.031-0.263,0.073-0.557,0.137-0.841c1.229-5.537,8.573-9.96,14.384-8.489
				c-1.891-3.846-0.651-8.658,2.49-11.631c0.998-0.946,2.175-1.692,3.499-2.175c1.828-0.651,3.814-0.757,5.716-0.399
				c3.908,0.693,7.47,3.299,8.679,6.872c0.315-3.152,1.25-6.336,3.078-8.983c0.483-0.693,1.03-1.355,1.629-1.965
				c2.931-2.921,7.533-4.57,11.652-3.436c0.042,0.01,0.073,0.021,0.116,0.031c-3.436,1.072-6.43,3.11-7.985,6.819
				c-1.114,2.637-1.418,13.175,4.056,12.367c-3.835,0.567-7.901,1.24-10.769,3.835c-2.868,2.595-3.677,7.817-0.578,10.139
				c1.355,1.009,3.12,1.261,4.812,1.292c3.268,0.063,6.556-0.599,9.551-1.923c0.052,4.886,4.686,8.92,9.551,9.372
				c4.875,0.452,9.645-2.038,13.081-5.516c6.01,6.136,17.546,5.274,22.579-1.681C575.416,199.607,579.629,200.941,583.937,201.393z"
				/>
			<path style="opacity:0.19;fill:#842810;" d="M551.682,173.949c-0.395,0.508-0.721,1.161-0.701,1.866
				c0.015,0.517,0.214,0.999,0.447,1.428c0.868,1.601,2.245,2.705,3.714,3.343s3.038,0.845,4.594,0.943
				c0.958,0.061,1.945,0.076,2.841-0.35c3.793-1.803,0.445-7.075-1.984-8.221C557.947,171.711,553.81,171.212,551.682,173.949z"/>
			<path style="opacity:0.19;fill:#842810;" d="M568.305,183.129c-0.344,0.454-0.628,1.039-0.61,1.669
				c0.013,0.462,0.186,0.893,0.389,1.278c0.756,1.432,1.956,2.42,3.237,2.99c1.281,0.571,2.647,0.756,4.003,0.844
				c0.834,0.054,1.695,0.068,2.475-0.313c3.305-1.613,0.388-6.329-1.729-7.354C573.764,181.127,570.16,180.681,568.305,183.129z"/>
			<path style="opacity:0.19;fill:#842810;" d="M535.842,184.456c-0.474,0.362-0.865,0.827-0.841,1.329
				c0.018,0.368,0.257,0.711,0.536,1.017c1.042,1.14,2.695,1.926,4.46,2.38s3.648,0.602,5.516,0.672
				c1.15,0.043,2.336,0.054,3.411-0.249c4.555-1.284,0.534-5.038-2.383-5.854C543.365,182.863,538.398,182.507,535.842,184.456z"/>
		</g>
	</g>
	<g>
		<g>
			<path style="fill:#954625;" d="M482.811,375.16v0.14c-0.06,2.447-0.389,4.844-0.829,6.981c-0.28,1.348-0.779,2.617-1.488,3.755
				c-1.867,3.066-5.093,5.233-8.868,5.762c-59.392,8.399-106.89,2.936-124.767,0.15c-4.953-0.769-8.978-4.354-10.077-9.098
				c-0.649-2.806-0.959-5.313-1.049-7.52c-0.26-6.711,5.333-12.284,12.284-12.354c40.617-0.389,100.049-0.08,122.47,0.06
				C477.368,363.076,482.871,368.529,482.811,375.16z"/>
			<path style="opacity:0.36;fill:#602A17;" d="M480.494,386.036c-1.867,3.066-5.093,5.233-8.868,5.762
				c-59.392,8.399-106.89,2.936-124.767,0.15c-4.953-0.769-8.978-4.354-10.077-9.098c-0.649-2.806-0.959-5.313-1.049-7.52
				c-0.26-6.711,5.333-12.284,12.284-12.354c40.617-0.389,100.049-0.08,122.47,0.06c6.881,0.04,12.384,5.493,12.324,12.124
				c-2.277-0.379-4.594-1.019-6.821-1.678c-6.681-1.977-10.796-5.093-16.179-2.117c-3.915,2.157-6.512,6.262-10.936,8.259
				c-8.219,3.705-18.166,3.975-26.276-0.2c-1.278-0.659-2.656-1.438-4.055-1.138c-1.748,0.37-2.697,2.177-3.835,3.545
				c-4.874,5.952-16.428,3.036-17.897-4.514c-9.068,8.129-23.27,9.937-34.075,4.334c-2.577-1.338-6.342-2.776-7.84-0.29
				c-1.698,2.816,2.397,5.513,5.603,6.232c28.033,6.282,57.435,6.392,85.518,0.329c7.061-1.518,14.112-3.435,21.332-3.725
				C471.775,384.028,476.349,384.538,480.494,386.036z"/>
		</g>
		<g>
			<ellipse style="fill:#F45250;" cx="376.547" cy="369.91" rx="18.786" ry="14.922"/>
			<ellipse style="fill:#B73030;" cx="376.547" cy="369.91" rx="14.366" ry="11.411"/>
			<ellipse style="fill:#F45250;" cx="440.173" cy="365.997" rx="18.912" ry="15.76"/>
			<ellipse style="fill:#B73030;" cx="440.173" cy="365.997" rx="14.462" ry="12.052"/>
			<path style="fill:#F45250;" d="M372.438,371.961c-0.774,0.632-1.772,0.935-2.562,1.547c-0.79,0.612-1.336,1.782-0.767,2.604
				c0.603,0.856,1.932,0.567,2.874,0.11c0.942-0.457,2.106-0.983,2.956-0.371c0.512,0.369,0.706,1.039,1.13,1.507
				c0.968,1.067,2.924,0.637,3.686-0.586c0.763-1.223,0.525-2.86-0.19-4.111c-0.452-0.791-1.013-1.944-0.252-2.445
				c0.216-0.142,0.486-0.17,0.744-0.184c1.529-0.08,3.061,0.201,4.589,0.099c1.528-0.102,3.156-0.696,3.911-2.028
				c0.487-0.859,0.358-2.216-0.582-2.517c-1.057-0.339-2.355,0.877-3.205,0.163c-0.352-0.295-0.424-0.797-0.506-1.249
				c-0.186-1.031-0.575-2.08-1.376-2.755c-0.801-0.675-2.092-0.844-2.88-0.154c-0.775,0.679-0.807,1.842-0.984,2.857
				c-0.177,1.015-0.83,2.184-1.858,2.109c-1.11-0.336-2.01-1.292-2.278-2.421c-0.172-0.726-0.149-1.598-0.738-2.056
				c-0.368-0.286-0.868-0.311-1.334-0.325c-0.884-0.026-1.822-0.038-2.585,0.411c-0.762,0.449-1.216,1.541-0.684,2.248
				c0.208,0.278,0.536,0.461,0.695,0.77c0.425,0.826-0.645,1.656-1.566,1.78c-0.921,0.124-2.02,0.06-2.58,0.802
				c-0.583,0.773-0.074,1.992,0.8,2.41c0.874,0.418,1.922,0.223,2.815-0.154c1.338-0.565,2.141-1.21,3.568-1.049
				C373.559,370.017,373.32,371.242,372.438,371.961z"/>
			<path style="fill:#F45250;" d="M431.951,367.382c-1.021,0.48-1.834,1.382-2.206,2.447c-0.093,0.266-0.158,0.564-0.048,0.823
				c0.222,0.525,0.948,0.544,1.514,0.477c0.978-0.116,1.956-0.233,2.934-0.349c-0.128,0.763-0.255,1.549-0.081,2.303
				c0.174,0.754,0.728,1.474,1.491,1.6c1.363,0.225,2.268-1.411,2.428-2.783c0.16-1.372,0.117-2.973,1.183-3.851
				c0.974-0.802,2.469-0.574,3.541,0.091c1.072,0.665,1.874,1.679,2.828,2.505c0.953,0.826,2.203,1.491,3.436,1.225
				c1.233-0.266,2.147-1.858,1.38-2.86c-0.456-0.596-1.378-0.892-1.467-1.637c-0.087-0.734,0.7-1.22,1.302-1.649
				c0.891-0.634,1.611-1.641,1.549-2.733c-0.062-1.092-1.171-2.11-2.216-1.789c-0.458,0.141-0.816,0.49-1.171,0.812
				c-1,0.904-2.209,1.702-3.556,1.734c-1.347,0.032-2.782-0.977-2.785-2.325c-0.003-1.204,1.041-2.139,1.412-3.284
				c0.367-1.133-0.008-2.469-0.91-3.247c-0.902-0.777-2.279-0.951-3.345-0.421c0.223,0.938,0.444,1.932,0.155,2.851
				c-0.289,0.92-1.293,1.688-2.2,1.362c-0.457-0.164-0.789-0.558-1.201-0.816c-0.891-0.556-2.176-0.359-2.859,0.439
				c-0.683,0.797-0.681,2.097,0.005,2.893C436.526,365.214,437.446,364.799,431.951,367.382z"/>
		</g>
		<g>
			<g>
				<path style="fill:#EFD84E;" d="M405.971,360.159c-9.408,0.15-18.066,1.099-25.846,2.467c-2.307,0.41-4.534,0.849-6.671,1.318
					c-23.399,5.153-37.271,13.682-37.271,13.682c-0.02-0.22-0.05-0.429-0.06-0.639c-1.628-16.069,5.253-25.087,5.253-25.087
					c13.822,0.609,28.263,2.337,39.978,4.055C395.715,358.072,405.971,360.159,405.971,360.159z"/>
				<path style="fill:#EFD84E;" d="M445.579,354.986c-1.907,0.869-3.835,1.868-5.762,2.956c-1.148,0.639-2.287,1.318-3.426,2.017
					c-2.996,1.848-5.942,3.855-8.729,5.892c-10.546,7.66-18.795,15.55-18.795,15.55c-7.87-6.502-17.477-12.434-24.818-16.588
					c-1.398-0.799-2.716-1.528-3.925-2.187c-4.474-2.427-7.43-3.865-7.43-3.865c2.617-1.128,5.543-2.047,8.659-2.806
					C406.79,349.823,445.579,354.986,445.579,354.986z"/>
				<path style="fill:#EFD84E;" d="M483.839,371.455c0,0-11.615-4.314-28.213-8.009c-5.882-1.318-12.394-2.547-19.235-3.485
					c-5.293-0.729-10.796-1.268-16.359-1.538c0,0,8.749,0.23,19.784-0.479c11.984-0.769,26.675-2.637,35.793-7.091
					c0,0,2.227,2.337,4.374,6.522C481.792,360.868,483.53,365.662,483.839,371.455z"/>
			</g>
			<path style="opacity:0.23;fill:#D80000;" d="M479.984,357.373c-2.007,1.338-4.614,2.397-7.93,3.126
				c-5.443,1.198-10.926,2.167-16.428,2.946c-9.258,1.318-18.596,2.077-27.964,2.407c-14.511,0.529-29.102,0.02-43.613-1.039
				c-3.535-0.26-7.071-0.549-10.596-0.869c-0.799-0.07-1.598-0.14-2.397-0.22c-6.521-0.619-13.183-1.308-19.584,0.13
				c-6.392,1.438-12.613,5.443-14.881,11.595c-0.19,0.499-0.34,1.019-0.469,1.538c-1.628-16.069,5.253-25.087,5.253-25.087
				c13.822,0.609,28.263,2.337,39.978,4.055c25.437-6.132,64.226-0.969,64.226-0.969c-1.907,0.869-3.835,1.868-5.762,2.956
				c11.984-0.769,26.675-2.637,35.793-7.091C475.61,350.852,477.837,353.189,479.984,357.373z"/>
		</g>
		<g>
			<path style="fill:#954625;" d="M481.712,346.397c-0.01,0.1-0.02,0.21-0.03,0.32c-0.549,6.472-6.332,11.595-13.522,12.354
				c-0.37,0.04-0.729,0.08-1.089,0.11c-64.925,6.831-103.794,2.567-118.695,0.12c-5.093-0.829-9.468-3.895-11.365-8.219
				c-0.21-0.469-0.389-0.939-0.559-1.398c-3.016-8.439,3.705-17.128,13.552-17.807c50.734-3.525,97.303-1.298,117.496,0.04
				c6.681,0.449,12.124,4.664,13.742,10.177C481.652,343.461,481.822,344.909,481.712,346.397z"/>
			<path style="opacity:0.36;fill:#602A17;" d="M382.332,342.612c-2.007,3.785,0.19,8.699,3.705,11.145
				c3.515,2.447,7.95,3.046,12.204,3.575c13.992,1.748,28.153,3.495,42.145,1.748c8.878-1.099,18.955-3.266,26.685,0.1
				c-64.925,6.831-103.794,2.567-118.695,0.12c-5.093-0.829-9.468-3.895-11.365-8.219c-0.21-0.469-0.389-0.939-0.559-1.398
				c-3.016-8.439,3.705-17.128,13.552-17.807c50.734-3.525,97.303-1.298,117.496,0.04c6.681,0.449,12.124,4.664,13.742,10.177
				c-5.583,1.328-7.42-5.763-14.471-6.871c-5.063-0.789-9.448,5.453-13.772,7.28c-5.233,2.217-11.405,2.207-16.548-0.31
				c-3.585-1.758-7.021-4.704-10.996-4.244c-4.204,0.489-7.041,4.604-11.005,6.072c-5.433,2.007-11.195-1.338-16.509-3.645
				C392.619,338.078,385.049,337.489,382.332,342.612z"/>
		</g>
		<g>
			<g>
				<g>
					<path style="fill:#FFECB3;" d="M359.399,350.236c-7.86,0-14.888-3.388-17.23-8.905c-3.041-7.16,2.945-15.237,13.344-18.004
						c10.398-2.769,21.334,0.807,24.375,7.97l0,0c3.041,7.16-2.945,15.237-13.344,18.004
						C364.157,349.936,361.74,350.236,359.399,350.236z M362.688,325.645c-1.915,0-3.899,0.247-5.863,0.77
						c-8.248,2.194-13.072,8.42-10.754,13.878c2.318,5.457,10.916,8.114,19.161,5.918c8.248-2.194,13.072-8.42,10.754-13.878l0,0
						C374.22,328.177,368.811,325.645,362.688,325.645z"/>
				</g>
			</g>
			<g>
				<g>
					<path style="fill:#FFECB3;" d="M411.852,350.731c-8.603-0.761-15.967-5.15-17.996-11.415
						c-2.635-8.132,4.699-16.392,16.349-18.413c11.649-2.024,23.272,2.95,25.907,11.084l0,0c2.635,8.132-4.699,16.392-16.349,18.413
						C417.089,350.863,414.415,350.957,411.852,350.731z M417.834,324.134c-2.096-0.185-4.291-0.107-6.492,0.275
						c-9.24,1.603-15.123,7.95-13.114,14.148c2.008,6.197,11.162,9.938,20.399,8.333c9.24-1.603,15.123-7.95,13.114-14.148l0,0
						C430.211,328.022,424.536,324.728,417.834,324.134z"/>
				</g>
			</g>
			<g>
				<g>
					<path style="fill:#FFECB3;" d="M453.018,344.06c-7.586-2.16-13.438-7.361-14.183-13.33
						c-0.968-7.747,7.029-13.897,17.827-13.711c10.797,0.184,20.369,6.641,21.336,14.39l0,0c0.968,7.747-7.029,13.897-17.827,13.711
						C457.693,345.078,455.278,344.704,453.018,344.06z M462.95,321.23c-1.848-0.526-3.831-0.833-5.871-0.868
						c-8.564-0.148-14.931,4.535-14.193,10.44c0.737,5.904,8.306,10.831,16.867,10.977c8.564,0.148,14.931-4.535,14.193-10.44l0,0
						C473.385,326.842,468.86,322.912,462.95,321.23z"/>
				</g>
			</g>
		</g>
		<g>
			<path style="fill:#B7C259;" d="M483.27,331.457c-5.493,5.982-7.89,1.918-14.94,0c-7.041-1.918-6.671,6.032-16.289,6.032
				c-9.607,0-8.229-6.512-17.487-7.54c-7.82-0.869-9.288,6.342-15.859,8.179c-1.198,0.34-2.577,0.499-4.194,0.389
				c-10.446-0.679-9.787-7.201-19.055-8.229c-9.258-1.029-8.579,7.55-17.497,7.55c-8.918,0-7.89-4.464-18.526-6.382
				c-10.626-1.918-16.119,5.353-21.951-1.168c-5.832-6.522,9.947-16.808,9.947-16.808c25.047-7.55,114.58-2.407,122.809,1.029
				c3.266,1.358,6.861,3.366,9.657,5.673C484.149,323.677,486.576,327.852,483.27,331.457z"/>
			<path style="opacity:0.31;fill:#015416;" d="M479.884,320.182c-1.458,1.278-3.236,2.317-5.363,3.076
				c-5.033,1.778-10.506,1.658-15.839,1.518c-24.728-0.669-49.445-1.338-74.163-1.997c-2.637-0.07-5.383-0.12-7.77,0.989
				c-2.397,1.099-4.304,3.735-3.665,6.302c10.067,2.796,21.672-6.831,30.58-1.368c3.645,2.247,5.763,6.601,9.687,8.309
				c1.678,0.729,3.515,0.889,5.343,1.119c-1.198,0.34-2.577,0.499-4.194,0.389c-10.446-0.679-9.787-7.201-19.055-8.229
				c-9.258-1.029-8.579,7.55-17.497,7.55c-8.918,0-7.89-4.464-18.526-6.382c-10.626-1.918-16.119,5.353-21.951-1.168
				c-5.832-6.522,9.947-16.808,9.947-16.808c25.047-7.55,114.58-2.407,122.809,1.029
				C473.493,315.867,477.088,317.875,479.884,320.182z"/>
		</g>
		<g>
			<path style="fill:#EB8649;" d="M478.197,315.198c-7.79,13.682-27.893,4.504-68.061,4.454c-40.168,0.05-60.271,9.228-68.071-4.454
				c-7.75-13.622,10.177-55.278,67.432-55.887v-0.03c0.22,0,0.419,0.01,0.639,0.01c0.21,0,0.419-0.01,0.639-0.01l-0.01,0.03
				c2.027,0.02,4.005,0.09,5.932,0.22c39.209,2.457,58.314,24.917,62.368,41.616C480.454,306.839,480.094,311.863,478.197,315.198z"
				/>
			<g style="opacity:0.67;">
				<path style="fill:#FFECB3;" d="M427.705,277.14c-0.081-4.158,9.362-1.779,8.838,1.123
					C436.02,281.165,427.759,279.915,427.705,277.14z"/>
				<path style="fill:#FFECB3;" d="M452.869,287.634c0.877-4.065,9.52,0.421,8.344,3.125
					C460.036,293.463,452.283,290.348,452.869,287.634z"/>
				<path style="fill:#FFECB3;" d="M443.073,271.332c0.877-4.065,9.52,0.421,8.344,3.125
					C450.24,277.161,442.488,274.045,443.073,271.332z"/>
				<path style="fill:#FFECB3;" d="M360.849,285.302c-1.385-3.922,8.327-4.632,8.743-1.712
					C370.008,286.509,361.773,287.919,360.849,285.302z"/>
				<path style="fill:#FFECB3;" d="M376.448,273.85c-1.568-3.852,8.1-5.019,8.653-2.122
					C385.654,274.625,377.494,276.421,376.448,273.85z"/>
				<path style="fill:#FFECB3;" d="M393.402,279.578c-0.533-4.125,9.112-2.787,8.908,0.155
					C402.106,282.675,393.758,282.33,393.402,279.578z"/>
				<path style="fill:#FFECB3;" d="M410.547,265.753c-0.405-4.139,9.194-2.504,8.899,0.431
					C419.151,269.118,410.818,268.516,410.547,265.753z"/>
			</g>
			<path style="opacity:0.33;fill:#842810;" d="M478.197,315.198c-7.79,13.682-27.893,4.504-68.061,4.454
				c-40.168,0.05-60.271,9.228-68.071-4.454c-7.75-13.622,10.177-55.278,67.432-55.887v-0.03c0.22,0,0.419,0.01,0.639,0.01
				c0.21,0,0.419-0.01,0.639-0.01l-0.01,0.03c2.027,0.02,4.005,0.09,5.932,0.22c-1.947,0.449-3.805,0.949-5.443,1.388
				c-12.334,3.306-23.839,9.777-32.907,18.785c-2.227,2.207-4.384,4.724-4.973,7.8c-1.408,7.38,6.931,13.183,14.421,13.752
				c7.49,0.559,15.07-1.858,22.471-0.589c6.991,1.188,12.973,5.493,19.285,8.699c8.369,4.254,17.667,6.661,27.045,7.021
				c5.822,0.22,12.064-0.499,16.578-4.204c3.465-2.836,5.223-6.711,5.892-11.035C480.454,306.839,480.094,311.863,478.197,315.198z"
				/>
		</g>
		<g>
			<path style="fill:#E58E51;" d="M481.283,405.071c-0.15,6.092-2.497,11.025-6.491,14.99c-11.974,11.914-38.699,15.2-64.935,15.2
				c-34.984,0-70.837-5.832-71.436-30.19c-0.32-13.193,7.68-14.671,22.111-13.263c12.214,1.198,29.042,4.474,49.325,4.474
				C454.098,396.282,481.882,380.712,481.283,405.071z"/>
			<path style="opacity:0.33;fill:#842810;" d="M474.791,420.061c-11.974,11.914-38.699,15.2-64.935,15.2
				c-34.984,0-70.837-5.832-71.436-30.19c-0.32-13.193,7.68-14.671,22.111-13.263c-0.939,2.567-1.248,5.463-0.649,8.858
				c1.388,7.88,7.44,14.611,14.85,18.835c7.41,4.224,16.089,6.222,24.718,7.47c23.819,3.436,48.556,1.498,71.387-5.603
				C472.155,420.96,473.483,420.53,474.791,420.061z"/>
		</g>
	</g>
	<g>
		<g>
			<path style="fill:#DBBF79;" d="M137.075,332.236l-0.423,4.999c-0.742,8.752,3.115,18.369,9.04,20.617
				c7.496,2.844,18.854,4.453,33.246,4.453c13.998,0,25.387-0.982,33.135-3.307c6.407-1.922,10.647-12.13,9.635-21.431l-0.58-5.332
				C221.129,332.236,185.858,343.349,137.075,332.236z"/>
			<path style="fill:#FFECB3;" d="M278.488,264.417c-0.07,1.63-0.17,3.26-0.33,4.86c-0.66,7.05-2.09,13.88-4.19,20.4
				c-0.35,1.08-0.72,2.16-1.12,3.23c-0.03,0.09-0.06,0.17-0.09,0.26c-1.32,3.62-2.86,7.14-4.6,10.55v0.01
				c-1.72,3.36-3.48,6.62-5.32,9.74c-0.65,1.11-1.32,2.2-1.99,3.28c-2.57,4.11-5.31,7.98-8.29,11.57c-1.75,2.11-3.58,4.11-5.51,6.01
				c-14.3,14.1-34.15,22.59-66.35,22.59c-34,0-52.94-8.14-66.34-21.73c-1.88-1.9-3.65-3.91-5.33-6.01
				c-2.75-3.44-5.28-7.15-7.71-11.09c-0.64-1.04-1.27-2.1-1.9-3.17c-1.84-3.13-3.63-6.4-5.43-9.79c-1.79-3.35-3.39-6.82-4.76-10.4
				c-0.02-0.06-0.05-0.12-0.07-0.18c-0.43-1.12-0.84-2.25-1.23-3.39c-2.38-6.97-3.98-14.3-4.69-21.88c-0.17-1.6-0.26-3.23-0.33-4.86
				c2.19-19,45.14-34.16,97.79-34.16C233.338,230.257,276.298,245.417,278.488,264.417z"/>
			<path style="opacity:0.42;fill:#C18E61;" d="M179.128,312.797c-31.28,0-61.47-6.32-89.9-18.07c1.37,3.58,2.97,7.05,4.76,10.4
				c1.8,3.39,3.59,6.66,5.43,9.79c0.63,1.07,1.26,2.13,1.9,3.17c25.14,8.41,51.22,12.73,77.81,12.73c27.97,0,55.37-4.79,81.72-14.07
				c0.67-1.08,1.34-2.17,1.99-3.28c1.84-3.12,3.6-6.38,5.32-9.74v-0.01c1.74-3.41,3.28-6.93,4.6-10.55
				C243.238,305.907,211.758,312.797,179.128,312.797z"/>
			<path style="fill:#FFEEC2;" d="M278.825,264.4c0,1.118-0.142,2.236-0.425,3.33c-4.6,18.165-46.466,32.371-97.461,32.371
				c-50.995,0-92.862-14.206-97.461-32.371c-0.283-1.095-0.425-2.212-0.425-3.33c0-0.512,0.024-1.025,0.094-1.537
				c2.194-19.003,45.145-34.164,97.791-34.164c52.646,0,95.598,15.161,97.791,34.164C278.801,263.375,278.825,263.888,278.825,264.4
				z"/>
			<path style="fill:#C18E61;" d="M180.939,294.037c-52.956,0-89.533-14.998-93.052-28.895c-0.192-0.735-0.284-1.468-0.284-2.204
				c0-0.301,0.009-0.602,0.051-0.902c1.689-14.638,39.57-30.196,93.285-30.196c53.715,0,91.596,15.558,93.271,30.088
				c0.055,0.409,0.065,0.71,0.065,1.01c0,0.73-0.095,1.467-0.279,2.191C270.472,279.038,233.895,294.037,180.939,294.037z"/>
			<g>
				<defs>
					<path id="SVGID_1_" d="M180.939,294.037c-52.956,0-89.533-14.998-93.052-28.895c-0.192-0.735-0.284-1.468-0.284-2.204
						c0-0.301,0.009-0.602,0.051-0.902c1.689-14.638,39.57-30.196,93.285-30.196c53.715,0,91.596,15.558,93.271,30.088
						c0.055,0.409,0.065,0.71,0.065,1.01c0,0.73-0.095,1.467-0.279,2.191C270.472,279.038,233.895,294.037,180.939,294.037z"/>
				</defs>
				<clipPath id="SVGID_00000141454093739033887580000008453321716968678806_">
					<use xlink:href="#SVGID_1_"  style="overflow:visible;"/>
				</clipPath>
				<g style="clip-path:url(#SVGID_00000141454093739033887580000008453321716968678806_);">
					<path style="fill:#FDB812;" d="M265.923,277.661c-0.978,0.775-2.066,1.536-3.275,2.27c-2.025,1.264-4.349,2.446-6.986,3.574
						c-0.775,0.34-1.604,0.68-2.433,1.006c-0.924,0.353-1.862,0.707-2.854,1.06c-0.883,0.299-1.78,0.612-2.691,0.91h-0.027
						c-2.582,0.843-5.368,1.631-8.29,2.351c-2.84,0.72-5.844,1.386-8.956,1.998c-1.549,0.299-3.126,0.584-4.73,0.87
						c-2.963,0.489-6.034,0.938-9.201,1.345c-0.476,0.068-0.951,0.109-1.441,0.177c-1.223,0.163-2.46,0.285-3.71,0.421
						c-0.707,0.095-1.427,0.163-2.161,0.231c-1.047,0.109-2.107,0.204-3.18,0.285c-2.174,0.19-4.363,0.353-6.592,0.489
						c-0.136,0-0.258,0.014-0.394,0.014c-1.223,0.081-2.446,0.149-3.697,0.217c-1.128,0.041-2.27,0.095-3.411,0.122
						c-3.71,0.15-7.489,0.231-11.348,0.231c-0.761,0-1.495,0-2.243-0.014c-1.753,0-3.507-0.041-5.246-0.068
						c-0.666-0.014-1.345-0.027-2.011-0.068c-1.142-0.027-2.283-0.082-3.398-0.122c-5.545-0.245-10.9-0.612-16.064-1.142
						c-1.481-0.136-2.922-0.299-4.349-0.476c-6.605-0.761-12.843-1.753-18.565-2.936c-0.87-0.177-1.74-0.353-2.569-0.544
						c-0.462-0.095-0.87-0.204-1.305-0.299c-1.563-0.353-3.072-0.72-4.553-1.128c-0.19-0.041-0.394-0.095-0.571-0.136
						c-0.652-0.163-1.278-0.34-1.93-0.53c-2.922-0.829-5.64-1.699-8.168-2.623c-0.068-0.014-0.109-0.054-0.177-0.068
						c-1.767-0.639-3.425-1.318-4.974-2.025c-0.095-0.041-0.19-0.081-0.272-0.122c-17.77,0.196-3.299-12.094,0.272-15.282
						c5.924-5.289,21.828-4.902,27.399-8.624c8.358-5.586,19.014-10.329,28.174-6.17c4.934,2.256,9.378,7.013,14.732,6.075
						c1.413-0.258,2.759-0.911,4.213-0.951c3.031-0.081,5.491,2.542,8.481,3.031c3.384,0.557,6.496-1.672,9.473-3.371
						c7.257-4.159,16.418-5.599,24.069-2.229c5.137,2.256,9.215,6.442,14.338,8.725c3.792,1.699,7.978,2.256,11.987,3.357
						c6.428,1.767,12.463,4.947,17.573,9.242C265.216,277.036,265.569,277.349,265.923,277.661z"/>
					<g>
						<g>
							<g>
								<path style="fill:#EFD84E;" d="M199.396,294.65c-1.359,0.082-2.704,0.163-4.091,0.231c-0.041-1.563-0.136-3.207-0.285-4.879
									c-0.027-0.394-0.068-0.788-0.109-1.182c-0.109-1.033-0.245-2.066-0.421-3.085c-0.109-0.775-0.258-1.536-0.421-2.283
									c-0.285-1.441-0.652-2.854-1.101-4.186c-1.074-3.153-2.596-5.885-4.743-7.665c-0.299-0.272-0.612-0.503-0.938-0.707
									c-0.87-0.571-1.821-1.006-2.895-1.25c-0.068-0.027-0.136-0.041-0.204-0.054c-0.816-0.177-1.617-0.381-2.406-0.625
									c-0.435-0.136-0.87-0.272-1.291-0.435c-2.99-1.06-5.681-2.528-8.209-4.118c-1.563-0.979-3.044-2.011-4.512-3.017
									c-4.499-3.139-8.657-6.13-13.292-7.026c-1.087-0.217-2.202-0.313-3.343-0.272c-7.516,0.245-14.651,3.561-21.12,8.399
									c-1.821,1.386-3.602,2.881-5.328,4.471c-2.107,1.957-4.132,4.036-6.034,6.197c-3.452,3.873-6.564,7.978-9.255,11.919
									c-1.767-0.639-3.425-1.318-4.974-2.025c1.237-1.848,2.596-3.778,4.077-5.722c2.65-3.493,5.667-7.081,9.038-10.438
									c1.984-1.984,4.091-3.901,6.32-5.681c5.939-4.757,12.721-8.576,20.25-10.343c5.898-1.386,10.275-1.237,13.999-0.177
									c5.001,1.413,8.807,4.444,13.496,7.516c1.563,1.019,3.221,2.052,5.069,3.031c2.324,1.237,4.92,2.392,7.964,3.33h0.013
									c0.53,0.177,1.047,0.367,1.549,0.584c1.332,0.571,2.528,1.332,3.602,2.242c1.033,0.843,1.957,1.835,2.786,2.922
									c0.544,0.707,1.047,1.468,1.509,2.27c1.508,2.582,2.609,5.559,3.411,8.63c0.204,0.829,0.408,1.658,0.571,2.501
									c0.122,0.544,0.217,1.101,0.326,1.645c0.19,1.114,0.353,2.229,0.489,3.33C199.151,290.763,199.3,292.774,199.396,294.65z"/>
								<path style="fill:#EFD84E;" d="M199.001,294.664c-1.223,0.081-2.446,0.149-3.697,0.217c-1.128,0.041-2.27,0.095-3.411,0.122
									c-1.916-2.215-4.091-4.485-6.374-6.374c-0.924-0.775-1.848-1.481-2.786-2.093c-1.345-0.883-2.691-1.59-4.023-2.039
									c-0.285-0.095-0.584-0.177-0.87-0.245c-1.237-0.313-2.392-0.476-3.452-0.516c-0.204-0.014-0.408-0.027-0.612-0.027
									c-4.186-0.027-7.23,1.645-10.927,2.908c-0.231,0.068-0.462,0.136-0.693,0.217c-2.229,0.693-4.73,1.21-7.869,1.074
									c-0.231-0.014-0.449-0.027-0.666-0.054c-1.78-0.177-3.316-0.775-4.73-1.59c-0.082-0.054-0.163-0.095-0.245-0.15
									c-0.897-0.53-1.74-1.169-2.569-1.835c-2.243-1.835-4.363-3.982-6.959-5.627c-1.835-1.155-3.901-2.052-6.401-2.392
									c-0.367-0.041-0.747-0.082-1.128-0.109c-0.177,0-0.353-0.014-0.53-0.014c-1.454-0.054-3.044,0.095-4.811,0.462
									c-1.509,0.326-2.949,0.72-4.295,1.196c-5.396,1.848-9.486,4.716-12.381,7.353c-0.068-0.014-0.109-0.054-0.177-0.068
									c-1.767-0.639-3.425-1.318-4.974-2.025c-0.747-0.34-1.481-0.68-2.161-1.019c1.495-1.454,3.534-3.126,6.238-4.702
									c2.691-1.577,6.034-3.058,10.152-4.172c2.066-0.571,4.322-1.046,6.796-1.386c0.122-0.014,0.245-0.027,0.353-0.041
									c3.275-0.421,6.021-0.34,8.399,0.095c0.435,0.068,0.843,0.163,1.25,0.258c2.351,0.557,4.322,1.427,6.102,2.446
									c1.631,0.924,3.099,1.957,4.526,2.963c2.161,1.509,4.227,2.922,6.66,3.724h0.014c2.623,0.87,5.667,1.019,9.69-0.19
									c2.338-0.707,4.512-1.264,6.564-1.631c2.582-0.489,5.001-0.68,7.312-0.489c0.299,0.027,0.598,0.054,0.883,0.095
									c0.802,0.081,1.604,0.231,2.392,0.421c0.639,0.163,1.264,0.34,1.903,0.584c1.59,0.544,3.167,1.305,4.77,2.324
									c1.549,0.992,3.126,2.202,4.77,3.683c0.951,0.856,1.916,1.794,2.908,2.841c0.353,0.367,0.72,0.747,1.074,1.142
									C196.297,291.402,197.629,292.951,199.001,294.664z"/>
								<path style="fill:#EFD84E;" d="M255.662,283.505c-0.788,0.34-1.59,0.666-2.433,1.006h-0.014
									c-0.924,0.353-1.848,0.707-2.84,1.06c-1.264-1.522-2.65-3.072-4.172-4.58c-2.542-2.555-5.436-4.974-8.603-6.877
									c-1.78-1.074-3.642-1.984-5.586-2.65c-11.675-4.064-15.14-1.916-22.765-2.161c-2.351-0.068-5.097-0.353-8.603-1.142
									c-3.969-0.883-6.986-1.78-9.323-2.65c-0.815-0.299-1.536-0.584-2.202-0.87c-1.345-0.584-2.419-1.142-3.303-1.631
									c-3.384-1.889-4.172-3.004-7.978-2.093c-0.421,0.095-0.815,0.204-1.169,0.326c-2.555,0.788-3.656,1.876-4.39,3.167
									c-0.72,1.291-1.087,2.773-2.161,4.363c-0.421,0.598-0.924,1.21-1.604,1.835c-0.911,0.843-2.12,1.699-3.778,2.569
									c-0.449,0.245-0.938,0.476-1.468,0.72c-0.503,0.231-1.047,0.462-1.631,0.693c-4.77,1.916-10.275,2.297-15.561,2.908
									c-2.392,0.285-4.743,0.612-6.959,1.155c-2.609,0.625-5.029,1.549-7.122,3.031c-1.631,1.142-3.058,2.637-4.227,4.58
									c-0.639,1.06-1.196,2.256-1.672,3.602c-0.462-0.095-0.87-0.204-1.305-0.299c-0.815-0.19-1.617-0.381-2.419-0.571
									c-0.72-0.177-1.427-0.367-2.134-0.557c0.027-0.109,0.068-0.217,0.109-0.34c1.237-3.86,3.996-8.386,10.152-11.009
									c0.245-0.122,0.503-0.218,0.775-0.313c0.462-0.19,0.938-0.353,1.441-0.516c1.101-0.34,2.297-0.625,3.588-0.856
									c1.876-0.326,3.615-0.612,5.246-0.87c0.965-0.163,1.876-0.313,2.759-0.448c6.727-1.087,11.348-1.862,14.868-3.561
									c0.652-0.313,1.277-0.666,1.862-1.06c1.074-0.693,2.039-1.536,2.936-2.555c0.883-1.006,1.699-2.174,2.487-3.574
									c0.408-0.707,0.829-1.359,1.305-1.943c1.087-1.4,2.365-2.446,3.833-3.18c4.24-2.161,10.044-1.645,17.6,0.87
									c1.93,0.639,3.969,1.4,6.13,2.31c1.169,0.462,2.378,0.979,3.615,1.536c7.842,3.493,23.716-1.984,39.984,6.211
									C244.572,271.967,250.253,276.438,255.662,283.505z"/>
								<path style="fill:#EFD84E;" d="M225.68,291.701c-2.963,0.489-6.034,0.938-9.201,1.345c-0.639-0.353-1.305-0.707-1.998-1.019
									c-1.074-0.516-2.202-0.992-3.398-1.413c-1.413-0.489-2.922-0.911-4.499-1.223c-0.272-0.041-0.544-0.095-0.829-0.136
									c-0.353-0.068-0.72-0.122-1.087-0.177c-2.066-0.285-3.982-0.38-5.776-0.38c-1.386,0-2.705,0.054-3.982,0.122
									c-0.326,0.014-0.639,0.027-0.965,0.041c-2.854,0.136-5.559,0.245-8.426-0.231c-1.93-0.326-3.941-0.924-6.129-1.943
									c-0.503-0.245-1.019-0.503-1.549-0.802c-1.101-0.598-2.243-1.305-3.452-2.147c-0.149-0.109-0.299-0.217-0.449-0.326
									c-0.951-0.679-1.943-1.454-2.976-2.324c-0.639-0.516-1.291-1.087-1.957-1.685c-0.72-0.652-1.468-1.359-2.229-2.093
									c-0.503-0.489-1.006-0.992-1.522-1.508c-0.666-0.68-1.332-1.318-1.984-1.903c-0.19-0.19-0.394-0.367-0.584-0.557
									c-1.182-1.046-2.351-1.984-3.506-2.813c-0.367-0.272-0.72-0.516-1.074-0.747c-6.184-4.145-11.865-5.056-16.826-3.126
									c-0.245,0.095-0.476,0.19-0.707,0.299c-1.767,0.788-3.452,1.957-5.015,3.466c-0.462,0.435-0.911,0.911-1.359,1.413
									c-1.101,1.25-2.147,2.691-3.139,4.308c-0.19,0.313-0.381,0.625-0.557,0.951c-0.503,0.856-0.979,1.78-1.441,2.732
									c-1.182,2.46-2.215,4.743-3.072,6.823c-0.449,1.019-0.829,1.998-1.196,2.922c-0.815-0.19-1.617-0.381-2.419-0.571
									c-0.924-0.217-1.821-0.448-2.704-0.693c-0.652-0.177-1.291-0.353-1.93-0.53c1.006-3.017,2.378-6.524,4.213-9.976
									c1.114-2.066,2.378-4.132,3.846-6.062c0.992-1.346,2.093-2.623,3.275-3.792c1.509-1.522,3.167-2.868,4.988-3.996
									c2.229-1.4,4.716-2.446,7.475-3.031c2.31-0.489,4.471-0.652,6.51-0.544c6.197,0.313,11.294,3.072,15.929,6.537
									c0.883,0.666,1.753,1.359,2.609,2.066c0.652,0.53,1.291,1.087,1.93,1.631c1.074,0.911,2.12,1.835,3.18,2.732
									c0.516,0.449,1.019,0.883,1.536,1.318c1.237,1.046,2.487,2.066,3.751,2.99c0.394,0.285,0.775,0.571,1.169,0.843
									c0.476,0.326,0.951,0.639,1.441,0.938c0.544,0.34,1.101,0.666,1.672,0.965c1.604,0.856,3.262,1.536,5.001,1.944
									c2.433,0.584,5.07,0.897,7.801,1.114c1.318,0.109,2.664,0.19,4.009,0.272c1.169,0.068,2.338,0.122,3.52,0.19
									c1.685,0.109,3.371,0.218,5.042,0.381c0.204,0.014,0.408,0.027,0.612,0.054c0.856,0.082,1.712,0.19,2.569,0.313
									c0.747,0.109,1.495,0.231,2.243,0.367C217.254,286.006,222.024,287.854,225.68,291.701z"/>
								<path style="fill:#EFD84E;" d="M239.366,288.833c-2.84,0.72-5.844,1.386-8.956,1.998c-5.07-1.019-9.188-4.308-13.143-7.964
									c-0.693-0.639-1.373-1.291-2.052-1.93c-1.4-1.346-2.786-2.677-4.2-3.941c-4.036-3.574-8.304-6.51-13.591-6.823
									c-1.835-0.109-3.438-0.041-4.838,0.15c-1.019,0.163-1.957,0.381-2.8,0.666c-0.557,0.177-1.074,0.381-1.563,0.612
									c-0.788,0.353-1.522,0.761-2.202,1.21c-1.278,0.815-2.433,1.74-3.629,2.691c-1.291,1.033-2.637,2.066-4.24,2.99
									c-0.313,0.177-0.625,0.353-0.951,0.517c-0.394,0.204-0.802,0.394-1.223,0.571c-0.924,0.394-1.943,0.747-3.071,1.047
									c-0.625,0.163-1.278,0.313-1.944,0.462c-4.621,1.06-9.962,1.93-13.863,4.037c-0.802,0.421-1.549,0.91-2.215,1.468
									c-0.462,0.38-0.897,0.802-1.264,1.264c-0.136,0.136-0.245,0.285-0.353,0.435c-1.074,1.454-1.685,3.262-1.685,5.531
									c-1.481-0.136-2.922-0.299-4.349-0.476c-0.014-1.794,0.177-3.656,0.734-5.436c0.163-0.557,0.367-1.115,0.625-1.658
									c0-0.054,0.027-0.095,0.054-0.136c0.285-0.639,0.639-1.25,1.033-1.835c0.788-1.128,1.794-2.161,3.058-3.058h0.014
									c2.134-1.495,5.015-2.569,8.888-3.004c1.93-0.217,3.629-0.53,5.137-0.911c2.65-0.693,4.73-1.617,6.456-2.65
									c0.503-0.299,0.965-0.612,1.413-0.938c2.147-1.522,3.724-3.207,5.328-4.702c0.163-0.163,0.34-0.326,0.516-0.489
									c0.924-0.829,1.876-1.59,2.976-2.215c0.815-0.462,1.712-0.856,2.732-1.155c0.87-0.245,1.835-0.421,2.922-0.517
									c0.897-0.082,1.889-0.095,2.976-0.027c1.753,0.082,3.778,0.353,6.143,0.856c4.974,1.06,8.426,2.365,11.009,3.833
									c2.501,1.414,4.186,2.976,5.654,4.58c1.604,1.753,2.949,3.574,4.811,5.341c0.938,0.897,2.025,1.78,3.33,2.637
									c2.188,1.427,5.029,2.786,8.97,3.996C234.854,286.726,237.287,287.732,239.366,288.833z"/>
								<path style="fill:#EFD84E;" d="M267.255,276.547c-1.277,1.155-2.813,2.297-4.607,3.384
									c-3.085-8.562-9.391-10.981-21.392-12.979c-0.788-0.136-1.536-0.285-2.256-0.448c-14.8-3.384-16.921-13.509-30.838-11.213
									c-5.192,0.856-9.283,3.004-12.83,6.102c-1.128,0.979-2.202,2.052-3.235,3.221c-0.258,0.299-0.516,0.598-0.775,0.897
									c-0.503,0.598-1.006,1.237-1.522,1.889c-0.72,0.938-1.441,1.93-2.147,2.963c-0.122,0.177-0.245,0.353-0.367,0.53
									c-0.421,0.625-0.856,1.264-1.264,1.916c-0.693,1.033-1.359,2.093-2.039,3.18c-0.816,1.305-1.645,2.637-2.487,4.023
									c-0.081,0.122-0.163,0.245-0.231,0.381c-0.829,1.332-1.672,2.704-2.555,4.104c-0.285,0.462-0.571,0.924-0.87,1.386
									c-0.19,0.299-0.367,0.584-0.53,0.87c-1.196,1.944-2.175,3.778-2.99,5.504c-0.476,1.006-0.897,1.971-1.264,2.895
									c-0.421-0.014-0.856-0.014-1.291-0.041c-1.373-0.041-2.759-0.082-4.118-0.15c0.19-0.503,0.408-1.019,0.639-1.536
									c0.516-1.196,1.142-2.419,1.862-3.67c0.353-0.612,0.734-1.223,1.142-1.848c0.217-0.34,0.448-0.693,0.666-1.047
									c0.612-0.992,1.223-2.052,1.821-3.153c0.068-0.095,0.109-0.19,0.163-0.299c0.68-1.223,1.359-2.514,2.039-3.833
									c0.122-0.217,0.231-0.449,0.34-0.666c0.231-0.421,0.449-0.843,0.666-1.264c0.544-1.033,1.087-2.079,1.658-3.139
									c0.938-1.767,1.93-3.547,2.99-5.301c0.041-0.082,0.095-0.163,0.149-0.245c0.53-0.897,1.101-1.78,1.685-2.65
									c0.381-0.598,0.775-1.182,1.182-1.74c0.381-0.53,0.761-1.06,1.169-1.563c1.046-1.386,2.175-2.705,3.384-3.928
									c4.77-4.879,10.805-8.426,18.959-9.011c14.474-1.046,21.215,4.471,29.275,9.31c4.403,2.623,9.214,5.056,15.888,6.089
									C261.642,266.775,265.515,271.573,267.255,276.547z"/>
								<path style="fill:#EFD84E;" d="M215.039,293.223c-1.223,0.15-2.46,0.299-3.71,0.421c-0.707,0.095-1.427,0.163-2.161,0.231
									c-0.707-1.482-1.563-3.004-2.582-4.485c-0.245-0.353-0.503-0.707-0.775-1.047c-0.897-1.21-1.916-2.365-3.072-3.438
									c-0.367-0.34-0.747-0.666-1.142-0.992c-1.223-1.006-2.582-1.916-4.091-2.691c-0.544-0.285-1.101-0.544-1.685-0.788
									c-0.965-0.408-1.916-0.802-2.854-1.169c-3.126-1.264-6.102-2.365-8.984-3.275c-0.53-0.177-1.06-0.34-1.59-0.489
									c-1.264-0.367-2.514-0.707-3.751-0.992c-1.345-0.313-2.664-0.584-3.996-0.788c-0.979-0.163-1.971-0.285-2.949-0.381
									c-2.297-0.231-4.607-0.299-6.958-0.163c-0.68,0.041-1.359,0.095-2.052,0.163c-2.297,0.231-4.648,0.639-7.081,1.25
									c-4.213,1.06-7.828,0.612-11.294-0.503c-2.569-0.816-5.056-1.984-7.625-3.153c-0.367-0.177-0.747-0.34-1.128-0.516
									c-2.052-0.924-4.186-1.808-6.483-2.474c-1.4-0.421-2.854-0.761-4.39-0.978c-2.202-0.313-4.566-0.367-7.149-0.068
									c-0.177,0.013-0.353,0.027-0.53,0.054c-9.378,1.237-15.385,7.461-18.864,12.803c-1.577-0.979-2.963-2.012-4.145-3.085
									c4.281-6.755,12.34-15.507,23.811-15.752c2.188-0.041,4.2,0.068,6.048,0.299c2.256,0.272,4.295,0.72,6.157,1.278
									c1.441,0.435,2.786,0.924,4.05,1.454c2.351,0.951,4.458,2.025,6.51,3.004c0.081,0.054,0.177,0.095,0.258,0.136
									c4.145,1.957,8.1,3.534,13.292,3.085c1.264-0.109,2.596-0.245,3.982-0.394c0.951-0.095,1.93-0.204,2.936-0.313
									c1.78-0.177,3.642-0.353,5.545-0.489c1.155-0.082,2.338-0.15,3.534-0.204c3.194-0.136,6.497-0.095,9.853,0.245
									c0.557,0.054,1.101,0.122,1.658,0.19c0.924,0.122,1.848,0.258,2.759,0.435c1.087,0.204,2.175,0.448,3.262,0.72
									c0.707,0.19,1.413,0.394,2.134,0.625c1.441,0.449,2.881,0.979,4.308,1.604c2.487,1.101,4.947,2.474,7.353,4.186
									c2.351,1.672,4.349,3.452,6.075,5.26c0.652,0.666,1.25,1.345,1.821,2.025c0.163,0.204,0.326,0.408,0.476,0.598
									c0.612,0.748,1.169,1.495,1.672,2.243c1.21,1.753,2.188,3.479,2.99,5.124C214.685,292.435,214.862,292.829,215.039,293.223z
									"/>
								<path style="fill:#EFD84E;" d="M253.215,284.511c-0.924,0.353-1.848,0.707-2.84,1.06c-0.883,0.299-1.78,0.612-2.691,0.91
									h-0.027c-3.438-1.196-7.203-2.555-11.226-4.132c-2.256-0.883-4.322-1.577-6.197-2.093
									c-4.403-1.196-7.842-1.454-10.519-1.033c-1.849,0.272-3.316,0.883-4.499,1.712c-1.033,0.72-1.835,1.617-2.433,2.637
									c-0.285,0.462-0.53,0.951-0.72,1.454c-0.245,0.612-0.435,1.237-0.571,1.876c-0.285,1.21-0.408,2.46-0.408,3.71
									c0,0.299,0,0.612,0.014,0.911c0.041,0.68,0.122,1.386,0.231,2.12c-0.707,0.095-1.427,0.163-2.161,0.231
									c-1.047,0.109-2.107,0.204-3.18,0.285c-0.231-1.604-0.326-3.262-0.231-4.906c0.014-0.299,0.027-0.612,0.054-0.911
									c0.136-1.318,0.38-2.623,0.775-3.914c0.014-0.041,0.027-0.082,0.054-0.136c0.231-0.761,0.53-1.509,0.883-2.256
									c0.815-1.753,1.957-3.452,3.493-5.042c0.516-0.544,1.087-1.074,1.699-1.59c0.707-0.598,1.441-1.101,2.188-1.522
									c6.157-3.452,13.686-1.359,21.514,2.202c3.235,1.482,6.524,3.208,9.785,4.906
									C248.567,282.214,250.919,283.424,253.215,284.511z"/>
								<path style="fill:#EFD84E;" d="M178.303,295.221c-1.753,0-3.507-0.041-5.246-0.068c-0.421-0.014-0.856-0.014-1.291-0.041
									c-0.245,0-0.476-0.014-0.72-0.027c-0.883-0.571-1.794-1.128-2.759-1.658c-4.281-2.392-9.323-4.363-15.018-5.137
									c-1.712-0.245-3.479-0.381-5.3-0.381c-7.162-0.014-13.7,1.033-19.299,2.501c-0.87-0.177-1.74-0.353-2.569-0.544
									c-0.462-0.095-0.87-0.204-1.305-0.299c-0.815-0.19-1.617-0.381-2.419-0.571c-0.72-0.177-1.427-0.367-2.134-0.557
									c-0.19-0.041-0.394-0.095-0.571-0.136c0.217-0.068,0.449-0.136,0.679-0.204c1.726-0.516,3.602-1.006,5.64-1.454
									c0.571-0.149,1.169-0.272,1.78-0.38c2.881-0.598,6.034-1.087,9.473-1.441c2.759-0.299,5.708-0.489,8.834-0.544
									c0.381-0.014,0.761-0.027,1.155-0.027c0.829-0.014,1.645,0,2.446,0.027c2.609,0.095,5.083,0.38,7.421,0.843
									c2.011,0.38,3.928,0.883,5.749,1.495c0.245,0.068,0.476,0.163,0.72,0.231c2.365,0.829,4.553,1.821,6.578,2.908
									c1.481,0.788,2.868,1.631,4.172,2.501C175.747,293.223,177.079,294.215,178.303,295.221z"/>
							</g>
						</g>
						<path style="opacity:0.1;fill:#D80000;" d="M174.32,292.258c1.427,0.965,2.759,1.957,3.982,2.963
							c-1.753,0-3.507-0.041-5.246-0.068c-0.421-0.014-0.856-0.014-1.291-0.041c-1.373-0.041-2.759-0.082-4.118-0.15
							c0.19-0.503,0.408-1.019,0.639-1.536c-4.281-2.392-9.323-4.363-15.018-5.137c-1.074,1.454-1.685,3.262-1.685,5.531
							c-1.481-0.136-2.922-0.299-4.349-0.476c-0.014-1.794,0.177-3.656,0.734-5.436c-7.162-0.014-13.7,1.033-19.299,2.501
							c-0.87-0.177-1.74-0.353-2.569-0.544c-0.462-0.095-0.87-0.204-1.305-0.299c-0.815-0.19-1.617-0.381-2.419-0.571
							c-0.924-0.217-1.821-0.448-2.704-0.693c-0.652-0.177-1.291-0.353-1.93-0.53c1.006-3.017,2.378-6.524,4.213-9.976
							c-5.396,1.848-9.486,4.716-12.381,7.353c-0.068-0.014-0.109-0.054-0.177-0.068c-1.767-0.639-3.425-1.318-4.974-2.025
							c-0.747-0.34-1.481-0.68-2.161-1.019c1.495-1.454,3.534-3.126,6.238-4.702c2.65-3.493,5.667-7.081,9.038-10.438
							c-0.177,0.013-0.353,0.027-0.53,0.054c-9.378,1.237-15.385,7.461-18.864,12.803c-1.577-0.979-2.963-2.012-4.145-3.085
							c4.281-6.755,12.34-15.507,23.811-15.752c2.188-0.041,4.2,0.068,6.048,0.299c5.939-4.757,12.721-8.576,20.25-10.343
							c5.898-1.386,10.275-1.237,13.999-0.177c-1.142,1.264-2.378,2.487-3.629,3.67c-0.843,0.815-1.699,1.617-2.555,2.406
							c-1.291,1.196-2.582,2.406-3.873,3.602c-2.256,2.093-4.512,4.2-6.768,6.279c-0.149,0.149-0.299,0.285-0.449,0.435
							c-1.386,1.278-2.759,2.569-4.145,3.846c-0.408,0.381-0.829,0.761-1.237,1.155c-0.489,0.449-0.979,0.911-1.468,1.359
							c-0.883,0.816-1.794,1.685-2.392,2.705c-0.122,0.204-0.245,0.408-0.313,0.625c-0.122,0.231-0.204,0.476-0.272,0.734
							c-0.421,1.631,0.027,3.017,0.992,4.172c1.196,1.4,3.14,2.447,5.246,3.139c1.427,0.462,2.922,0.761,4.308,0.883
							c2.351,0.204,4.689,0.394,7.04,0.544c0.095,0,0.204,0.014,0.299,0.014c1.998,0.136,3.996,0.245,5.994,0.326
							c2.419,0.109,4.838,0.19,7.271,0.245c0.476,0,0.938,0.014,1.414,0.014c2.8,0.054,5.586,0.054,8.385,0.014
							c1.78-0.014,3.574-0.054,5.355-0.109C176.115,288.697,175.136,290.532,174.32,292.258z"/>
						<path style="opacity:0.1;fill:#D80000;" d="M212.062,285.027c5.192,0.979,9.962,2.827,13.618,6.673
							c-2.963,0.489-6.034,0.938-9.201,1.345c-0.639-0.353-1.305-0.707-1.998-1.019c0.204,0.408,0.381,0.802,0.557,1.196
							c-1.223,0.15-2.46,0.299-3.71,0.421c-0.707,0.095-1.427,0.163-2.161,0.231c-1.047,0.109-2.107,0.204-3.18,0.285
							c-0.231-1.604-0.326-3.262-0.231-4.906c-0.353-0.068-0.72-0.122-1.087-0.177c-2.066-0.285-3.982-0.38-5.776-0.38
							c0.258,2.066,0.408,4.077,0.503,5.953c-1.359,0.082-2.704,0.163-4.091,0.231c-1.128,0.041-2.27,0.095-3.411,0.122
							c-1.916-2.215-4.091-4.485-6.374-6.374c-1.93-0.326-3.941-0.924-6.129-1.943c1.114-0.041,2.229-0.095,3.343-0.15
							c2.772-0.122,5.531-0.299,8.304-0.517c1.142-0.081,2.297-0.177,3.452-0.285c1.305-0.109,2.609-0.231,3.914-0.367
							c1.441-0.136,2.895-0.299,4.335-0.462c1.278-0.15,2.569-0.299,3.846-0.476c0.231-0.014,0.449-0.054,0.666-0.082
							c0.707-0.082,1.4-0.177,2.093-0.285c1.155-0.149,2.297-0.313,3.438-0.489C212.497,284.035,212.253,284.525,212.062,285.027z"
							/>
						<path style="opacity:0.1;fill:#D80000;" d="M232.014,285.857c2.84,0.87,5.273,1.876,7.353,2.976
							c-2.84,0.72-5.844,1.386-8.956,1.998c-5.07-1.019-9.188-4.308-13.143-7.964c1.93-0.313,3.846-0.652,5.776-1.006
							C225.232,283.288,228.072,284.647,232.014,285.857z"/>
						<path style="opacity:0.1;fill:#D80000;" d="M255.662,283.505c-0.788,0.34-1.59,0.666-2.433,1.006h-0.014
							c-0.924,0.353-1.848,0.707-2.84,1.06c-0.883,0.299-1.78,0.612-2.691,0.91h-0.027c-3.438-1.196-7.203-2.555-11.226-4.132
							c-2.256-0.883-4.322-1.577-6.197-2.093c1.237-0.381,2.433-0.911,3.52-1.631c1.06-0.707,1.944-1.563,2.664-2.542
							c0.462-0.611,0.856-1.264,1.182-1.971c0.734-1.522,1.169-3.208,1.332-4.974C244.572,271.967,250.253,276.438,255.662,283.505z
							"/>
						<path style="opacity:0.1;fill:#D80000;" d="M267.255,276.547c-1.277,1.155-2.813,2.297-4.607,3.384
							c-3.085-8.562-9.391-10.981-21.392-12.979c-0.788-0.136-1.536-0.285-2.256-0.448c-0.095-2.419-0.639-4.879-1.563-7.122
							c4.403,2.623,9.214,5.056,15.888,6.089C261.642,266.775,265.515,271.573,267.255,276.547z"/>
					</g>
				</g>
			</g>
			<g style="opacity:0.42;">
				<g>
					<path style="fill:#C18E61;" d="M252.558,328.317c-1.75,2.11-3.58,4.11-5.51,6.01c-13.71,4.2-27.41,7.16-41.03,8.86
						c-9.29,1.16-18.55,1.74-27.75,1.74c-16.16,0-32.13-1.79-47.73-5.36c-5.73-1.31-11.13-2.79-16.18-4.38
						c-1.88-1.9-3.65-3.91-5.33-6.01c6.83,2.41,14.38,4.67,22.6,6.54C160.548,342.307,202.488,345.027,252.558,328.317z"/>
				</g>
			</g>
		</g>
		<g>
			<path style="fill:#F45250;" d="M95.945,300.05L95.945,300.05c0.189,0.649,0.919,0.969,1.524,0.667l194.081-96.93
				c0.554-0.276,0.764-0.96,0.46-1.5l-2.995-5.329c-0.289-0.514-0.936-0.703-1.455-0.424L96.474,298.793
				C96.023,299.034,95.802,299.559,95.945,300.05z"/>
			<path style="fill:#F45250;" d="M100.047,304.841L100.047,304.841c0.129,0.664,0.827,1.048,1.457,0.803l202.091-78.88
				c0.577-0.225,0.848-0.887,0.595-1.452l-2.497-5.579c-0.241-0.538-0.868-0.785-1.411-0.555l-199.593,84.459
				C100.217,303.836,99.95,304.338,100.047,304.841z"/>
		</g>
	</g>
	<g>
		<g>
			<path style="fill:#FFA767;" d="M294.714,343.094c0,0-70.775,48.241-130.667,25.339c-2.316-0.887-3.15-4.154-2.462-8.197
				c0.966-5.778,5.008-13.157,12.232-17.561c12.298-7.499,24.817,2.379,56.888-4.314c20.961-4.385,28.288-9.678,35.347-12.194
				c3.745-1.333,7.422-1.874,13.014-1.087C295.225,327.362,294.714,343.094,294.714,343.094z"/>
			<path style="opacity:0.21;fill:#842810;" d="M294.714,343.094c0,0-70.775,48.241-130.667,25.339
				c-2.316-0.887-3.15-4.154-2.462-8.197c8.066-3.624,14.96-8.315,24.788-9.23c8.653-0.801,17.356,0.315,26.041,0.445
				c18.211,0.289,36.471-3.772,52.84-11.753c3.705-1.804,7.922-5.625,5.954-9.242c-0.871-1.586-2.679-2.371-4.14-3.439
				c-0.363-0.26-0.706-0.543-1.016-0.851c3.745-1.333,7.422-1.874,13.014-1.087C295.225,327.362,294.714,343.094,294.714,343.094z"
				/>
		</g>
		<g>
			<path style="fill:#F45250;" d="M301.911,388.393c-24.33,14-49.591,21.251-77.919,22.258c-24.981,0.889-56.996,1.99-66.635-16.732
				c-1.291-2.501-2.18-5.361-2.604-8.624c-2.405-18.748,12.472-31.752,41.962-28.867c29.494,2.877,58.555-3.737,76.082-12.706
				c7.878-4.04,15.963-7.614,23.431-8.922c9.134-1.617,17.363,0.165,23.225,8.598C330.104,358.731,326.241,374.393,301.911,388.393z
				"/>
			<path style="opacity:0.45;fill:#842F2F;" d="M301.911,388.393c-24.33,14-49.591,21.251-77.919,22.258
				c-24.981,0.889-56.996,1.99-66.635-16.732c3.359-5.658,7.311-11.597,13.581-13.449c3.3-0.973,6.823-0.67,10.247-0.31
				c10.749,1.096,21.473,2.468,32.155,4.108c16.13,2.474,33.518,5.387,48.049-2.046c8.463-4.325,15.08-11.819,23.796-15.625
				c4.503-1.97,9.438-2.876,13.847-5.043c4.413-2.176,8.467-6.134,8.703-11.046c0.203-4.084-2.263-7.828-5.068-10.793
				c-1.881-1.982-4.068-3.57-6.44-4.915c9.134-1.617,17.363,0.165,23.225,8.598C330.104,358.731,326.241,374.393,301.911,388.393z"
				/>
			<g>
				<g>
					<path style="fill:none;stroke:#891A1A;stroke-width:1.4006;stroke-linecap:round;stroke-miterlimit:10;" d="M159.378,378.517
						c0,0,3.535,2.795,6.747,1.474"/>
					<path style="fill:none;stroke:#891A1A;stroke-width:1.4006;stroke-linecap:round;stroke-miterlimit:10;" d="M164.222,376.076
						c0,0-3.315,3.149-1.835,7.176"/>
				</g>
			</g>
		</g>
		<g>
			<path style="opacity:0.45;fill:#842F2F;" d="M167.391,363.873c0.644,4.212,9.067,3.949,31.96,11.944
				c22.893,7.994,27.747,3.927,24.551-2.01c-3.196-5.936-1.784-10.111,10.032-5.386c11.816,4.725,22.336,8.48,28.295,6.037
				c5.959-2.442-0.212-10.498,2.55-12.191c2.762-1.693,6.081-1.643,15.587,3.499s19.255,3.339,16.698-6.387
				c-2.556-9.726-0.699-14.809,6.683-11.764c7.381,3.045,12.152,4.51,11.924,0.319c-0.228-4.191-20.468-10.215-24.478-3.156
				c-4.009,7.059,0.953,11.584,0.948,16.41c-0.005,4.826-7.924,1.161-15.47-3.445c-7.546-4.607-16.422-3.886-17.254,3.529
				c-0.832,7.415,1.707,11.561-9.142,6.912c-10.848-4.649-25.56-12.216-30.79-5.714c-5.231,6.501,1.791,11.608-1.229,12.81
				s-29.543-8.101-37.945-11.617C171.91,360.147,166.881,360.541,167.391,363.873z"/>
			<path style="fill:#EFD84E;" d="M165.545,361.561c0.644,4.212,9.067,3.949,31.96,11.944c22.893,7.994,27.747,3.926,24.551-2.01
				c-3.196-5.936-1.784-10.111,10.032-5.386c11.816,4.725,22.336,8.48,28.295,6.037c5.959-2.442-0.212-10.498,2.55-12.191
				c2.762-1.693,6.081-1.643,15.587,3.499c9.506,5.142,19.255,3.339,16.698-6.387c-2.556-9.726-0.699-14.809,6.683-11.764
				c7.381,3.045,12.152,4.51,11.924,0.318s-20.468-10.215-24.478-3.156c-4.01,7.059,0.953,11.584,0.948,16.41
				c-0.005,4.826-7.924,1.161-15.47-3.445c-7.546-4.607-16.422-3.886-17.254,3.529c-0.832,7.415,1.707,11.561-9.142,6.912
				c-10.848-4.649-25.56-12.216-30.79-5.714c-5.231,6.501,1.791,11.608-1.229,12.81c-3.02,1.202-29.543-8.101-37.944-11.617
				C170.064,357.834,165.035,358.229,165.545,361.561z"/>
		</g>
		<g>
			<path style="fill:#FFA767;" d="M270.935,432.005c-36.004,11.19-78.445,4.184-97.428-10.178c-1.394-1.057-2.619-2.189-3.67-3.365
				c-13.225-14.866,0.256-37.992,20.791-28.828c22.174,9.891,52.77,4.851,58.624,3.363c26.483-6.758,32.367-13.336,46.608-21.387
				c0.518-0.296,1.043-0.587,1.582-0.883c15.428-8.458,28.274,2.312,27.76,15.45C324.701,399.31,306.952,420.81,270.935,432.005z"/>
			<g>
				<g>
					<path style="fill:#FFDF84;" d="M251.922,426.545c0.516,2.096-8.196,3.264-8.424,1.348
						C243.156,425.014,251.406,424.449,251.922,426.545z"/>
					<path style="fill:#FFDF84;" d="M232.675,425.059c0.289,2.139-8.497,2.372-8.52,0.442
						C224.122,422.602,232.385,422.92,232.675,425.059z"/>
					<path style="fill:#FFDF84;" d="M239.12,432.304c0.292,2.138-8.495,2.381-8.519,0.452
						C230.565,429.856,238.828,430.165,239.12,432.304z"/>
					<path style="fill:#FFDF84;" d="M220.93,432.093c0.182,2.151-8.606,1.942-8.531,0.014
						C212.512,429.209,220.748,429.943,220.93,432.093z"/>
					<path style="fill:#FFDF84;" d="M284.078,416.609c1.071,1.874-6.987,5.387-7.731,3.607
						C275.229,417.54,283.008,414.735,284.078,416.609z"/>
					<path style="fill:#FFDF84;" d="M297.635,415.318c1.071,1.874-6.987,5.387-7.731,3.607
						C288.786,416.25,296.565,413.444,297.635,415.318z"/>
					<path style="fill:#FFDF84;" d="M296.221,406.902c1.194,1.798-6.609,5.844-7.471,4.118
						C287.454,408.425,295.026,405.104,296.221,406.902z"/>
					<path style="fill:#FFDF84;" d="M311.18,401.677c1.787,1.21-3.898,7.914-5.351,6.644
						C303.646,406.413,309.393,400.467,311.18,401.677z"/>
					<path style="fill:#FFDF84;" d="M203.671,427.399c-0.163,2.152-8.805,0.549-8.425-1.342
						C195.818,423.214,203.834,425.247,203.671,427.399z"/>
					<path style="fill:#FFDF84;" d="M195.514,418.103c-0.651,2.058-8.697-1.482-7.893-3.237
						C188.829,412.23,196.166,416.046,195.514,418.103z"/>
					<path style="fill:#FFDF84;" d="M184.886,421.075c-0.816,1.998-8.548-2.184-7.604-3.867
						C178.699,414.679,185.702,419.077,184.886,421.075z"/>
					<path style="fill:#FFDF84;" d="M273.43,427.061c0.516,2.096-8.196,3.264-8.424,1.348
						C264.664,425.529,272.914,424.965,273.43,427.061z"/>
					<path style="fill:#FFDF84;" d="M267.881,418.424c0.516,2.096-8.196,3.264-8.424,1.348
						C259.116,416.893,267.365,416.329,267.881,418.424z"/>
				</g>
			</g>
			<path style="opacity:0.21;fill:#842810;" d="M270.935,432.005c-36.004,11.19-78.445,4.184-97.428-10.178
				c-1.394-1.057-2.619-2.189-3.67-3.365c2.701-4.615,8.87-7.028,14.431-6.749c6.59,0.323,12.685,3.36,18.894,5.595
				c28.458,10.207,60.576,3.279,87.669-10.153c8.878-4.4,18.511-11.209,18.705-21.12c0.105-5.497-3.167-10.921-8.087-13.384
				c-1.727-0.871-3.638-1.077-5.588-1.043c0.518-0.296,1.043-0.587,1.582-0.883c15.428-8.458,28.274,2.312,27.76,15.45
				C324.701,399.31,306.952,420.81,270.935,432.005z"/>
		</g>
	</g>
	<g>
		<g>
			<g>
				<path style="fill:#F8A614;" d="M619.094,376.181c5.1,2.014,13.76,10.005,16.815,18.311c1.924,5.215,7.49,7.931,11.475,4.323
					c2.355-2.135,4.159-6.491,4.315-13.852c0.314-14.303-7.099-25.667-14.451-32.572c-2.815-2.655-5.627-4.649-7.987-5.902
					C624.664,344.052,614.002,374.168,619.094,376.181z"/>
				<path style="opacity:0.25;fill:#842F2F;" d="M619.094,376.181c5.1,2.014,13.76,10.005,16.815,18.311
					c1.924,5.215,7.49,7.931,11.475,4.323c-0.65-0.07-1.311-0.116-1.928-0.34c-3.888-1.378-2.63-7.092-3.486-11.126
					c-1.109-5.236-6.792-8.69-7.539-13.994c-0.517-3.695,1.502-7.197,2.612-10.76c1.294-4.144,1.088-7.271,0.207-10.205
					c-2.815-2.655-5.627-4.649-7.987-5.902C624.664,344.052,614.002,374.168,619.094,376.181z"/>
			</g>
			<g>
				<path style="fill:#FDB812;" d="M595.682,373.969c4.205,5.544,12.667,9.673,20.114,7.861c3.123-0.759,6.06-2.559,8.43-5.738
					c8.024-10.762,8.016-31.523-0.364-41.276c-0.007-0.009-0.014-0.019-0.022-0.02c-8.39-9.738-27.927-10.59-32.555-5.152
					C586.104,335.738,589.706,366.095,595.682,373.969z"/>
				<path style="opacity:0.33;fill:#842F2F;" d="M595.682,373.969c4.205,5.544,12.667,9.673,20.114,7.861
					c-1.892-2.308-2.053-5.721-1.381-8.684c0.72-3.164,2.232-6.103,2.993-9.261c0.884-3.674,0.721-7.597-0.484-11.176
					c-1.989-5.962-7.207-14.401,1.161-17.849c1.487-0.617,3.599-0.382,5.756-0.065c-8.39-9.738-27.927-10.59-32.555-5.152
					C586.104,335.738,589.706,366.095,595.682,373.969z"/>
			</g>
			<g>
				<path style="fill:#F8A614;" d="M539.881,397.595c14.216,7.075,23.852,1.387,34.301-5.686c6.155-4.158,13.866-4.624,20.433-6.316
					c4.587-1.179,8.617-2.964,11.168-7.017c3.288-5.224,9.578-21.447-3.244-38.095c-1.262-1.639-2.716-3.283-4.37-4.926
					c-18.46-18.279-58.97-7.565-70.247,12.308C516.645,367.735,525.664,390.529,539.881,397.595z"/>
				<path style="opacity:0.25;fill:#842F2F;" d="M539.881,397.595c14.216,7.075,23.852,1.387,34.301-5.686
					c6.155-4.158,13.866-4.624,20.433-6.316c-14.734-5.183-35.23,5.798-48.523-3.932c-7.448-5.457-9.65-16.345-6.364-24.974
					c3.277-8.63,11.148-14.95,19.825-18.08c8.685-3.129,18.146-3.4,27.348-2.725c6.381,0.478,10.96,2.033,15.638,4.599
					c-1.262-1.639-2.716-3.283-4.37-4.926c-18.46-18.279-58.97-7.565-70.247,12.308
					C516.645,367.735,525.664,390.529,539.881,397.595z"/>
			</g>
			<g>
				<path style="fill:#FDB812;" d="M511.414,402.577c7.808,9.771,16.624,14.408,21.585,13.715c1.258-0.177,2.269-0.702,2.958-1.563
					c3.39-4.28,8.454-6.779,10.131-16.45c2.544-14.651-7.57-29.289-18.576-32.717c-4.829-1.511-9.816-0.864-13.99,2.881
					C502.371,378.458,501.625,390.317,511.414,402.577z"/>
				<path style="opacity:0.33;fill:#842F2F;" d="M511.414,402.577c7.808,9.771,16.624,14.408,21.585,13.715
					c-1.643-1.139-3.368-2.233-4.378-3.932c-1.813-3.014,1.073-6.496,1.088-10.015c0.02-5.551-4.607-11.388-9.025-14.749
					c-2.695-2.042-6.154-3.545-7.456-6.671c-3.004-7.21,6.227-12.67,14.283-15.364c-4.829-1.511-9.816-0.864-13.99,2.881
					C502.371,378.458,501.625,390.317,511.414,402.577z"/>
			</g>
			<g>
				<path style="fill:#F8A614;" d="M499.529,416.164c4.628,17.58,24.034,25.788,29.391,23.921c0.619-0.211,1.244-0.672,1.67-1.458
					c0.904-1.638,0.954-4.691-1.653-9.973c-3.875-7.833-2.388-11.512-1.223-18.846c0.461-2.904-1.074-6.879-3.488-10.641
					c-0.007-0.009-0.006-0.018-0.012-0.027c-3.697-5.739-9.414-10.98-13.187-11.186
					C504.766,387.604,494.901,398.583,499.529,416.164z"/>
				<path style="opacity:0.25;fill:#842F2F;" d="M499.529,416.164c4.628,17.58,24.034,25.788,29.391,23.921
					c0.619-0.211,1.244-0.672,1.67-1.458c-1.299-0.298-2.669-0.257-3.987-0.491c-5.439-0.93-9.038-6.027-11.903-10.739
					c-4.821-7.934-9.498-17.567-5.858-26.106c0.91-2.147,2.407-4.151,4.522-5.145c3.637-1.731,8.154,0.007,10.85,2.994
					c-3.697-5.739-9.414-10.98-13.187-11.186C504.766,387.604,494.901,398.583,499.529,416.164z"/>
			</g>
		</g>
		<g>
			<path style="fill:#833C20;" d="M520.176,376.576c0.971,2.262,2.169,4.777,1.263,7.059c-0.378,0.96-1.101,1.774-1.353,2.78
				c-0.275,1.102,0.068,2.261,0.54,3.289c1.868,4.094,6.717,7.214,10.877,5.508c2.622-1.081,4.436-3.812,7.21-4.375
				c4.823-0.982,9.535,5.06,13.999,3.017c0.009-0.007,0.018-0.006,0.027-0.012c3.468-1.616,3.561-6.837,6.605-9.147
				c4.412-3.348,11.675,1.427,16.026-2.005c2.419-1.908,2.753-5.593,5.039-7.664c2.97-2.69,7.625-1.508,11.457-0.305
				c3.823,1.209,8.7,1.992,11.249-1.1c1.304-1.574,1.571-3.732,2.348-5.624c0.776-1.884,2.607-3.726,4.582-3.204
				c1.011,0.269,1.759,1.091,2.649,1.65c1.962,1.232,4.727,0.993,6.453-0.556c1.725-1.541,2.258-4.267,1.251-6.351
				c-0.886-1.847-2.724-3.017-4.096-4.548c-1.363-1.53-2.208-4.006-0.859-5.548c0.858-0.976,2.282-1.202,3.344-1.936
				c1.77-1.241,2.247-3.775,1.64-5.854c-0.043-0.149-0.095-0.299-0.146-0.45c-0.672-1.88-2.028-3.45-3.413-4.9
				c-2.1-2.207-4.874-4.437-7.85-3.814c-2.666,0.564-4.511,3.282-7.197,3.708c-3.055,0.485-5.629-2.107-7.738-4.365
				c-2.108-2.267-5.073-4.611-7.976-3.55c-1.562,0.563-2.615,1.985-3.896,3.045c-3.273,2.701-8.146,2.052-12.004,0.904
				c-1.127-0.329-2.309-0.785-3.42-0.426c-2.352,0.747-2.924,2.246-4.735,3.589c-2.371,1.765-5.668,0.137-8.622,0.045
				c-3.496-0.103-6.916,2.365-7.909,5.72c-0.371,1.229-0.449,2.563-1.062,3.687c-1.37,2.518-4.734,3.004-7.606,3.075
				c-2.871,0.063-6.174,0.216-7.939,2.487c-1.733,2.226-1.117,5.401-0.578,8.172c0.547,2.772,0.734,6.122-1.456,7.907
				c-1.941,1.582-5.059,1.254-6.727,3.122C518.515,371.444,519.204,374.322,520.176,376.576z"/>
			<path style="opacity:0.65;fill:#B25939;" d="M605.468,360.911c-1.075,0.348-2.175,0.626-2.848,1.133
				c-2.049,1.543-1.652,4.83-3.214,6.867c-1.889,2.464-5.726,2.1-8.599,0.922c-2.873-1.178-5.753-2.958-8.829-2.54
				c-5.182,0.704-7.894,7.154-12.979,8.378c-2.196,0.528-6.777,0.361-6.324-2.758c0.313-2.156,2.924-2.197,4.463-2.994
				c2.766-1.433,4.959-3.348,7.665-5.011c3.224-1.982,7.396-2.334,10.906-0.92c1.732,0.698,3.288,1.788,5.035,2.447
				c8.694,3.281,6.953-8.75,12.702-11.022c2.28-0.901,5.424-0.692,5.143,2.746C608.456,359.784,606.988,360.418,605.468,360.911z"/>
			<path style="opacity:0.57;fill:#5B2411;" d="M520.176,376.576c0.971,2.262,2.169,4.777,1.263,7.059
				c-0.378,0.96-1.101,1.774-1.353,2.78c-0.275,1.102,0.068,2.261,0.54,3.289c1.868,4.094,6.717,7.214,10.877,5.508
				c2.622-1.081,4.436-3.812,7.21-4.375c4.823-0.982,9.535,5.06,13.999,3.017c0.009-0.007,0.018-0.006,0.027-0.012
				c-0.063-0.027-0.125-0.053-0.188-0.08c-3.63-1.58-7.115-4.969-6.535-8.883c-3.8,0.81-7.753,0.944-11.603,0.383
				c3.336-1.938-1.266-7.093-0.186-10.786c0.965-3.284,6-3.865,7.092-7.104c1.189-3.483-3.031-7.566-0.99-10.621
				c2.198-3.306,8.325-0.384,10.932-3.375c2.318-2.643,0.005-8.037,3.15-9.62c1.745-0.877,3.923,0.314,5.778-0.304
				c2.136-0.706,2.922-3.442,4.912-4.49c2.931-1.55,6.189,1.267,9.444,1.892c5.113,0.988,10.011-3.63,15.168-2.869
				c5.501,0.806,7.043,3.478,12.564,4.154c5.866,0.722,4.9-11.03,17.819-0.969l0.188,0.03c-0.672-1.88-2.028-3.45-3.413-4.9
				c-2.1-2.207-4.874-4.437-7.85-3.814c-2.666,0.564-4.511,3.282-7.197,3.708c-3.055,0.485-5.629-2.107-7.738-4.365
				c-2.108-2.267-5.073-4.611-7.976-3.55c-1.562,0.563-2.615,1.985-3.896,3.045c-3.273,2.701-8.146,2.052-12.004,0.904
				c-1.127-0.329-2.309-0.785-3.42-0.426c-2.352,0.747-2.924,2.246-4.735,3.589c-2.371,1.765-5.668,0.137-8.622,0.045
				c-3.496-0.103-6.916,2.365-7.909,5.72c-0.371,1.229-0.449,2.563-1.062,3.687c-1.37,2.518-4.734,3.004-7.606,3.075
				c-2.871,0.063-6.174,0.216-7.939,2.487c-1.733,2.226-1.117,5.401-0.578,8.172c0.547,2.772,0.734,6.122-1.456,7.907
				c-1.941,1.582-5.059,1.254-6.727,3.122C518.515,371.444,519.204,374.322,520.176,376.576z"/>
		</g>
	</g>
</g>
</svg>
